<?xml version="1.0" encoding="utf-8"?>
<!-- Generator: Adobe Illustrator 17.0.0, SVG Export Plug-In . SVG Version: 6.00 Build 0)  -->
<!DOCTYPE svg PUBLIC "-//W3C//DTD SVG 1.1//EN" "http://www.w3.org/Graphics/SVG/1.1/DTD/svg11.dtd">
<svg version="1.1" id="Calque_1" xmlns="http://www.w3.org/2000/svg" xmlns:xlink="http://www.w3.org/1999/xlink" x="0px" y="0px"
	 width="512px" height="512px" viewBox="0 0 512 512" enable-background="new 0 0 512 512" xml:space="preserve">
<g>
	<g>
		<g id="XMLID_1_">
			<g>
				<path fill="#E59965" d="M474.14,244.453c0,0-13.425,20.806-25.932,26.353l-1.683,0.658c-8.892,2.946-18.497-1.889-21.443-10.781
					c-2.946-8.892,1.889-18.497,10.781-21.443c0.302-0.097,0.604-0.194,0.917-0.27c0.237-0.076,0.496-0.129,0.745-0.183
					c0.022-0.011,0.054-0.011,0.086-0.022C450.96,235.744,474.14,244.453,474.14,244.453z"/>
				<path fill="#F2B96D" d="M415.229,227.866c0.086,0.205,0.162,0.41,0.237,0.615c0.032,0.097,0.076,0.205,0.108,0.302
					c0.043,0.097,0.076,0.205,0.108,0.302v0.011c2.946,8.892-1.878,18.497-10.781,21.432c-8.892,2.946-18.497-1.889-21.432-10.781
					c-0.032-0.086-0.065-0.173-0.076-0.259l-0.41-1.478c-3.011-13.349,5.687-36.54,5.687-36.54s20.828,13.425,26.353,25.943
					C415.1,227.564,415.164,227.715,415.229,227.866z"/>
				<path fill="#E59965" d="M303.828,91.731c0,0-2.795,26.029-12.087,36.065c0.151-0.151,0.291-0.313,0.432-0.486
					c0.119-0.119,0.216-0.248,0.324-0.388l-1.058,1.187c-0.043,0.054-0.097,0.108-0.151,0.162c-6.626,6.626-17.374,6.626-24,0
					c-6.615-6.626-6.615-17.374,0.011-24c0.302-0.302,0.615-0.594,0.95-0.885c0.13-0.108,0.259-0.216,0.388-0.324
					C279.202,94.375,303.828,91.731,303.828,91.731z"/>
				<path fill="#F2B96D" d="M208.172,91.731c0,0,24.626,2.644,35.191,11.331c0.13,0.108,0.259,0.216,0.389,0.324
					c0.335,0.291,0.647,0.583,0.95,0.885h0.011c6.626,6.626,6.626,17.374,0,24c-6.626,6.626-17.374,6.626-24,0l-1.209-1.349
					C210.805,116.335,208.172,91.731,208.172,91.731z"/>
				<path fill="#E59965" d="M123.329,201.47c0,0,8.698,23.191,5.687,36.54l-0.475,1.737c-2.946,8.892-12.551,13.727-21.443,10.781
					c-8.892-2.935-13.727-12.54-10.781-21.432v-0.011c0.032-0.108,0.065-0.205,0.108-0.302c0.108-0.302,0.216-0.615,0.345-0.917
					c0.065-0.151,0.13-0.302,0.205-0.453C102.501,214.895,123.329,201.47,123.329,201.47z"/>
				<path fill="#F2B96D" d="M63.792,270.805c-12.507-5.547-25.932-26.353-25.932-26.353s23.18-8.709,36.529-5.687
					c0.032,0.011,0.065,0.011,0.086,0.022c0.248,0.054,0.507,0.108,0.745,0.183c0.205,0.054,0.41,0.108,0.604,0.173
					c0.108,0.032,0.205,0.065,0.313,0.097c8.892,2.946,13.727,12.54,10.781,21.443c-2.946,8.892-12.551,13.716-21.443,10.781
					L63.792,270.805z"/>
				<path fill="#F2B96D" d="M271.605,71.108l0.108,1.781V72.9v0.011c0,9.367-7.608,16.964-16.975,16.964
					c-9.367,0-16.975-7.597-16.964-16.964c0-0.216,0-0.432,0.011-0.647c0.518-13.651,16.954-34.058,16.954-34.058
					s15.745,19.511,16.9,33.152C271.626,71.27,271.626,71.194,271.605,71.108z"/>
				<path fill="#E59965" d="M291.288,180.804c-6.626,6.626-17.374,6.626-24,0c-6.615-6.626-6.615-17.374,0.011-23.99
					c0.151-0.151,0.302-0.302,0.464-0.453c0.281-0.259,0.572-0.507,0.874-0.755c10.565-8.687,35.191-11.331,35.191-11.331
					s-2.795,26.051-12.087,36.065c0.151-0.162,0.291-0.324,0.432-0.486c0.119-0.13,0.216-0.248,0.324-0.388l-1.079,1.209
					C291.375,180.718,291.331,180.761,291.288,180.804z"/>
				<path fill="#F2B96D" d="M244.712,180.804c-6.626,6.626-17.374,6.626-24,0l-1.209-1.338
					c-8.687-10.565-11.331-35.191-11.331-35.191s24.626,2.644,35.191,11.331c0.302,0.248,0.594,0.507,0.874,0.755
					c0.076,0.076,0.162,0.162,0.237,0.227c0.076,0.065,0.151,0.14,0.227,0.227h0.011
					C251.338,163.43,251.338,174.178,244.712,180.804z"/>
				<path fill="#F2B96D" d="M244.712,233.348c-6.626,6.626-17.374,6.626-24,0l-1.209-1.338
					c-8.687-10.576-11.331-35.202-11.331-35.202s24.626,2.644,35.191,11.331c0.302,0.248,0.594,0.507,0.874,0.766
					c0.162,0.14,0.302,0.281,0.464,0.442h0.011C251.338,215.974,251.338,226.722,244.712,233.348z"/>
				<path fill="#E59965" d="M291.288,233.348c-6.626,6.626-17.374,6.626-24,0c-6.615-6.626-6.615-17.374,0.011-24
					c0.151-0.151,0.302-0.302,0.464-0.442c0.281-0.259,0.572-0.518,0.874-0.766c10.565-8.687,35.191-11.331,35.191-11.331
					s-2.795,26.062-12.087,36.076c0.151-0.162,0.291-0.324,0.432-0.486c0.119-0.13,0.216-0.259,0.324-0.388l-1.079,1.209
					C291.375,233.262,291.331,233.305,291.288,233.348z"/>
				<path fill="#E59965" d="M291.288,285.892c-6.626,6.626-17.374,6.626-24,0c-6.615-6.626-6.615-17.374,0.011-24
					c0.151-0.151,0.302-0.302,0.464-0.442c0.281-0.259,0.572-0.518,0.874-0.766c10.565-8.687,35.191-11.331,35.191-11.331
					s-2.795,26.051-12.087,36.076c0.151-0.162,0.291-0.324,0.432-0.496c0.119-0.119,0.216-0.248,0.324-0.378l-1.079,1.209
					C291.375,285.806,291.331,285.849,291.288,285.892z"/>
				<path fill="#F2B96D" d="M244.712,285.892c-6.626,6.626-17.374,6.626-24,0l-1.209-1.338
					c-8.687-10.576-11.331-35.202-11.331-35.202s24.626,2.644,35.191,11.331c0.302,0.248,0.594,0.507,0.874,0.766
					c0.162,0.14,0.302,0.281,0.464,0.442h0.011C251.338,268.518,251.338,279.266,244.712,285.892z"/>
				<path fill="#F2B96D" d="M244.237,313.982c0.162,0.151,0.302,0.291,0.464,0.453h0.011c6.626,6.626,6.626,17.374,0,24
					s-17.374,6.626-24,0l-1.209-1.349c-8.698-10.586-11.331-35.191-11.331-35.191s24.626,2.644,35.191,11.331
					C243.665,313.475,243.957,313.734,244.237,313.982z"/>
				<path fill="#E59965" d="M303.828,301.896c0,0-2.676,24.928-11.493,35.396c0.054-0.065,0.108-0.129,0.162-0.205l-1.058,1.187
					c-0.043,0.054-0.097,0.108-0.151,0.162c-6.626,6.626-17.374,6.626-24,0c-6.615-6.626-6.615-17.374,0.011-24
					c0.151-0.151,0.302-0.302,0.464-0.453c0.281-0.248,0.572-0.507,0.874-0.755C279.202,304.54,303.828,301.896,303.828,301.896z"/>
				<path fill="#F2B96D" d="M454.327,174.577c0,0,5.223,24.195,0.291,36.972l-0.723,1.651c-4.209,8.374-14.417,11.752-22.781,7.543
					c-8.374-4.219-11.752-14.417-7.543-22.792c0.097-0.194,0.194-0.378,0.302-0.572c0.108-0.194,0.216-0.378,0.335-0.572
					c0.076-0.14,0.162-0.281,0.259-0.421C431.783,184.819,454.327,174.577,454.327,174.577z"/>
				<path fill="#E59965" d="M422.923,318.407c-8.892,2.935-18.497-1.889-21.443-10.792c-2.935-8.892,1.889-18.497,10.781-21.432
					c0.302-0.097,0.604-0.194,0.917-0.27c0.27-0.076,0.54-0.14,0.82-0.205c13.349-3.022,36.54,5.676,36.54,5.676
					s-13.489,20.925-26.029,26.396l-1.586,0.615c0.205-0.065,0.41-0.14,0.604-0.216
					C423.333,318.267,423.128,318.331,422.923,318.407z"/>
				<path fill="#F2B96D" d="M365.07,248.413c0,0,20.828,13.425,26.353,25.943c0.076,0.151,0.14,0.302,0.205,0.453
					c0.086,0.205,0.162,0.41,0.237,0.615c0.043,0.097,0.076,0.205,0.108,0.302c0.043,0.097,0.076,0.205,0.108,0.302v0.011
					c2.946,8.892-1.889,18.497-10.781,21.432c-8.892,2.946-18.497-1.878-21.443-10.781l-0.475-1.737
					C356.372,271.604,365.07,248.413,365.07,248.413z"/>
				<path fill="#E59965" d="M399.322,365.339c-8.892,2.946-18.497-1.878-21.443-10.781c-2.946-8.892,1.889-18.497,10.781-21.432
					c0.162-0.065,0.335-0.119,0.496-0.162c0.076-0.022,0.151-0.054,0.227-0.065c0.129-0.043,0.27-0.076,0.399-0.108
					c0.151-0.043,0.302-0.086,0.453-0.108c13.328-3.119,36.702,5.644,36.702,5.644s-13.425,20.817-25.932,26.353L399.322,365.339z"
					/>
				<path fill="#F2B96D" d="M357.699,344.414c-8.892,2.946-18.497-1.889-21.443-10.781l-0.475-1.737
					c-3.011-13.349,5.687-36.54,5.687-36.54s20.806,13.425,26.353,25.932c0.076,0.151,0.14,0.313,0.205,0.464
					c0.076,0.205,0.162,0.41,0.237,0.615c0.076,0.194,0.151,0.399,0.216,0.604C371.426,331.864,366.592,341.468,357.699,344.414z"/>
				<path fill="#E59965" d="M366.797,379.584c13.349-3.011,36.54,5.687,36.54,5.687s-13.425,20.828-25.943,26.353l-1.673,0.658
					c-8.892,2.946-18.497-1.889-21.443-10.781s1.889-18.497,10.781-21.443c0.237-0.076,0.475-0.151,0.723-0.216
					c0.13-0.043,0.27-0.076,0.399-0.108C366.387,379.681,366.581,379.627,366.797,379.584z"/>
				<path fill="#F2B96D" d="M334.098,391.358c-8.892,2.946-18.497-1.889-21.443-10.781l-0.453-1.662l-0.022-0.086
					c-3.011-13.349,5.687-36.529,5.687-36.529s20.806,13.425,26.353,25.932c0.076,0.162,0.14,0.313,0.194,0.464
					c0.032,0.086,0.076,0.162,0.108,0.248c0.043,0.119,0.097,0.237,0.14,0.367c0.076,0.194,0.14,0.399,0.216,0.604
					C347.825,378.807,342.991,388.412,334.098,391.358z"/>
				<path fill="#E59965" d="M379.725,432.214c0,0-13.414,20.817-25.932,26.353l-1.673,0.658
					c-8.903,2.935-18.507-1.889-21.454-10.781c-2.935-8.903,1.889-18.497,10.792-21.443c0.302-0.097,0.604-0.194,0.917-0.27
					c0.27-0.076,0.54-0.14,0.82-0.205C356.545,423.516,379.725,432.214,379.725,432.214z"/>
				<path fill="#F2B96D" d="M320.684,415.315c0.011,0.032,0.022,0.054,0.043,0.086c0.011,0.032,0.022,0.065,0.032,0.097
					c0.022,0.043,0.043,0.097,0.054,0.14c0.032,0.086,0.076,0.162,0.108,0.248c0.043,0.119,0.097,0.237,0.14,0.367
					c0.076,0.194,0.14,0.399,0.216,0.604c2.935,8.892-1.888,18.497-10.781,21.443c-8.903,2.935-18.497-1.889-21.443-10.781v-0.011
					l-0.475-1.737c-3.022-13.349,5.687-36.529,5.687-36.529S315.224,402.764,320.684,415.315z"/>
				<path fill="#E59965" d="M217.744,389.232c0,0,8.698,23.191,5.676,36.54l-0.475,1.737c-2.935,8.903-12.54,13.727-21.432,10.781
					c-8.903-2.935-13.727-12.54-10.781-21.432v-0.011c0.065-0.205,0.14-0.399,0.216-0.604c0.097-0.281,0.216-0.561,0.335-0.842
					c0.032-0.076,0.076-0.151,0.108-0.227C196.916,402.656,217.744,389.232,217.744,389.232z"/>
				<path fill="#F2B96D" d="M170.553,427.002c8.892,2.946,13.716,12.54,10.781,21.443c-2.946,8.892-12.551,13.716-21.443,10.781
					l-1.683-0.658c-12.507-5.547-25.932-26.353-25.932-26.353s23.18-8.698,36.529-5.687c0.281,0.065,0.55,0.129,0.82,0.205
					c0.313,0.076,0.615,0.173,0.917,0.27L170.553,427.002L170.553,427.002z"/>
				<path fill="#E59965" d="M199.344,380.577c-2.935,8.892-12.54,13.727-21.443,10.781c-8.892-2.946-13.716-12.551-10.781-21.443
					c0.065-0.205,0.14-0.41,0.216-0.604V369.3c0.022-0.054,0.043-0.119,0.065-0.173c0.065-0.14,0.119-0.281,0.183-0.432
					c0.032-0.076,0.054-0.151,0.097-0.237c0.032-0.076,0.065-0.151,0.097-0.227c5.547-12.507,26.353-25.932,26.353-25.932
					s8.698,23.191,5.687,36.529l-0.475,1.737v0.012H199.344z"/>
				<path fill="#F2B96D" d="M108.674,385.271c0,0,23.18-8.698,36.529-5.687c0.162,0.032,0.324,0.076,0.486,0.119
					c0.043,0,0.086,0.011,0.129,0.032c0.14,0.032,0.27,0.065,0.399,0.108c0.248,0.065,0.486,0.14,0.723,0.216h0.011
					c8.892,2.946,13.716,12.551,10.781,21.443c-2.946,8.892-12.551,13.727-21.443,10.781l-1.683-0.658
					C122.099,406.088,108.674,385.271,108.674,385.271z"/>
				<path fill="#E59965" d="M170.531,295.356c0,0,8.698,23.18,5.687,36.529l-0.475,1.748c-2.946,8.892-12.551,13.727-21.443,10.781
					c-8.892-2.935-13.727-12.551-10.781-21.443c0.097-0.302,0.216-0.615,0.335-0.917c0.011-0.022,0.022-0.032,0.022-0.054
					c0.032-0.086,0.076-0.162,0.108-0.248c0.054-0.151,0.119-0.302,0.194-0.464C149.725,308.781,170.531,295.356,170.531,295.356z"
					/>
				<path fill="#F2B96D" d="M85.073,338.328c0,0,23.18-8.698,36.529-5.687c0.216,0.043,0.41,0.097,0.615,0.151
					c0.14,0.032,0.27,0.065,0.399,0.108c0.248,0.065,0.486,0.14,0.723,0.216c8.903,2.946,13.727,12.551,10.792,21.443
					c-2.946,8.892-12.551,13.727-21.443,10.781c-0.032-0.011-0.065-0.022-0.097-0.032l-1.586-0.626
					C98.487,359.156,85.073,338.328,85.073,338.328z"/>
				<path fill="#E59965" d="M152.142,286.691c-2.946,8.892-12.551,13.727-21.443,10.781c-8.892-2.946-13.727-12.54-10.781-21.443
					c0.129-0.41,0.281-0.809,0.453-1.219c0.065-0.151,0.13-0.302,0.205-0.464c5.536-12.507,26.353-25.932,26.353-25.932
					s8.698,23.191,5.687,36.54L152.142,286.691z"/>
				<path fill="#F2B96D" d="M61.461,291.385c0,0,23.644-8.871,36.929-5.59c0.076,0.011,0.151,0.032,0.227,0.054
					c0.13,0.032,0.27,0.065,0.399,0.108c0.086,0.022,0.183,0.043,0.27,0.086c0.043,0.011,0.097,0.022,0.151,0.043
					c0.097,0.032,0.194,0.054,0.302,0.097c8.892,2.935,13.727,12.54,10.781,21.432c-2.946,8.903-12.54,13.727-21.443,10.781
					l-1.673-0.658C74.886,312.213,61.461,291.385,61.461,291.385z"/>
				<path fill="#F2B96D" d="M88.429,197.952c4.209,8.374,0.831,18.583-7.543,22.792c-8.363,4.209-18.572,0.831-22.781-7.543
					l-0.723-1.651c-4.921-12.777,0.291-36.972,0.291-36.972s22.544,10.241,29.86,21.81c0.097,0.14,0.183,0.281,0.259,0.421
					c0.119,0.194,0.227,0.378,0.335,0.572C88.235,197.574,88.332,197.758,88.429,197.952z"/>
			</g>
		</g>
	</g>
</g>
</svg>
