<svg xmlns="http://www.w3.org/2000/svg" xmlns:xlink="http://www.w3.org/1999/xlink" version="1.1" width="1000" height="1000" viewBox="0 0 1000 1000" xml:space="preserve">
<desc>Created with Fabric.js 3.5.0</desc>
<defs>
</defs>
<rect x="0" y="0" width="100%" height="100%" fill="#ffffff"/>
<g transform="matrix(0.189 0 0 0.189 499.9987 509.024)" id="870663">
<g style="" vector-effect="non-scaling-stroke">
		<g transform="matrix(1 0 0 1 -0.815 19.655)" id="Layer_1">
<path style="stroke: none; stroke-width: 1; stroke-dasharray: none; stroke-linecap: butt; stroke-dashoffset: 0; stroke-linejoin: miter; stroke-miterlimit: 4; is-custom-font: none; font-file-url: none; fill: rgb(255,231,190); fill-rule: nonzero; opacity: 1;" transform=" translate(-36.215, -81.095)" d="M 4.71 43.33 c 10.83 9.13 23.13 6.12 35.71 3.05 c 9.26 -2.26 18.66 -4.56 27.84 -2.19 l 0.39 0.1 l -5.09 65.47 a 11.18 11.18 0 0 1 -3.16 7.06 a 9.46 9.46 0 0 1 -6.74 2.81 H 21.08 a 9.25 9.25 0 0 1 -6.64 -2.77 a 11.87 11.87 0 0 1 -3.27 -7.09 L 3.78 42.56 l 0.93 0.77 Z" stroke-linecap="round"/>
</g>
		<g transform="matrix(1 0 0 1 -0.76 22.1049)" id="Layer_1">
<path style="stroke: none; stroke-width: 1; stroke-dasharray: none; stroke-linecap: butt; stroke-dashoffset: 0; stroke-linejoin: miter; stroke-miterlimit: 4; is-custom-font: none; font-file-url: none; fill: rgb(247,233,218); fill-rule: evenodd; opacity: 1;" transform=" translate(-36.27, -83.5448)" d="M 4.4 45.8 c 19 16 42.17 -4.62 63.74 1 l -5.06 65.06 c -0.4 5.17 -4.24 9.43 -9.42 9.43 H 21.08 c -5.18 0 -8.86 -4.28 -9.42 -9.43 L 4.4 45.8 Z" stroke-linecap="round"/>
</g>
		<g transform="matrix(1 0 0 1 -0.0094 0.0001)" id="Layer_1">
<path style="stroke: none; stroke-width: 1; stroke-dasharray: none; stroke-linecap: butt; stroke-dashoffset: 0; stroke-linejoin: miter; stroke-miterlimit: 4; is-custom-font: none; font-file-url: none; fill: rgb(0,0,0); fill-rule: nonzero; opacity: 1;" transform=" translate(-37.0205, -61.4401)" d="M 37 0 C 47 0 56 1.3 62.56 3.41 c 7.11 2.28 11.5 5.65 11.5 9.58 a 5.42 5.42 0 0 1 -0.32 1.83 l -9 97.14 a 12.65 12.65 0 0 1 -3.54 7.79 a 10.52 10.52 0 0 1 -7.51 3.13 H 21.08 a 10.41 10.41 0 0 1 -7.38 -3 l -0.1 -0.09 A 12.85 12.85 0 0 1 10 112 L 0 14.11 a 1.47 1.47 0 0 1 0 -0.47 A 4.73 4.73 0 0 1 0 13 c 0 -3.93 4.4 -7.3 11.51 -9.58 C 18.07 1.3 27.1 0 37 0 Z m 33 19.1 a 28.61 28.61 0 0 1 -7.49 3.48 C 56 24.68 47 26 37 26 s -19 -1.31 -25.52 -3.41 A 28.08 28.08 0 0 1 3.81 19 l 9.48 92.72 a 9.56 9.56 0 0 0 2.63 5.76 l 0.08 0.08 a 7.17 7.17 0 0 0 5.08 2.07 H 53.66 a 7.28 7.28 0 0 0 5.19 -2.16 a 9.42 9.42 0 0 0 2.6 -5.76 l 8.6 -92.57 Z m 0.46 -5 l 0.06 -0.65 a 1.5 1.5 0 0 1 0.2 -0.64 c -0.18 -2.27 -3.67 -4.5 -9.22 -6.28 C 55.31 4.53 46.64 3.29 37 3.29 S 18.75 4.53 12.51 6.53 C 6.81 8.36 3.29 10.66 3.29 13 s 3.52 4.64 9.22 6.47 c 6.24 2 14.91 3.24 24.52 3.24 s 18.28 -1.24 24.52 -3.24 c 4.79 -1.54 8 -3.41 9 -5.36 Z" stroke-linecap="round"/>
</g>
		<g transform="matrix(1 0 0 1 -18.7147 22.8978)" id="Layer_1">
<path style="stroke: none; stroke-width: 1; stroke-dasharray: none; stroke-linecap: butt; stroke-dashoffset: 0; stroke-linejoin: miter; stroke-miterlimit: 4; is-custom-font: none; font-file-url: none; fill: rgb(222,210,196); fill-rule: nonzero; opacity: 1;" transform=" translate(-18.3153, -84.3378)" d="M 14.46 62.79 a 1.64 1.64 0 1 1 3.27 -0.33 L 19 74.86 a 1.64 1.64 0 1 1 -3.26 0.33 l -1.27 -12.4 Z M 16.63 84 a 1.64 1.64 0 0 1 3.27 -0.34 l 2.27 22.22 a 1.64 1.64 0 0 1 -3.27 0.34 L 16.63 84 Z" stroke-linecap="round"/>
</g>
</g>
</g>
</svg>