<?xml version="1.0" encoding="utf-8"?>
<!DOCTYPE svg PUBLIC "-//W3C//DTD SVG 20010904//EN" "http://www.w3.org/TR/2001/REC-SVG-20010904/DTD/svg10.dtd">
<svg version="1.0" xmlns="http://www.w3.org/2000/svg" width="840pt" height="879pt" viewBox="0 0 840 879" style="" preserveAspectRatio="xMidYMid meet">
<g fill="#0875B9FD" stroke="#0875B9FD">
<path d="M 412.775 41.558 C 412.410 41.924 404.548 42.432 395.305 42.687 C 372.031 43.330 363.154 43.715 365.500 43.980 C 366.600 44.104 362.550 45.064 356.500 46.113 C 350.450 47.162 343.925 48.558 342.000 49.215 C 340.075 49.872 338.275 50.367 338.000 50.315 C 337.725 50.262 335.925 49.918 334.000 49.549 C 331.752 49.118 330.977 49.208 331.835 49.801 C 332.869 50.515 332.701 50.845 331.085 51.268 C 329.938 51.567 329.000 51.405 329.000 50.906 C 329.000 50.408 328.213 50.007 327.250 50.015 C 325.742 50.029 325.708 50.175 327.000 51.076 C 328.111 51.850 327.592 51.960 325.000 51.500 C 322.248 51.011 321.821 51.123 323.000 52.024 C 324.182 52.926 323.758 53.045 321.000 52.586 C 318.691 52.201 317.986 52.315 318.929 52.921 C 320.758 54.096 309.925 57.410 306.436 56.743 C 305.129 56.493 304.278 56.642 304.545 57.072 C 305.272 58.249 301.318 59.224 298.750 58.502 C 296.913 57.985 296.775 58.079 298.000 59.015 C 299.193 59.927 298.886 60.037 296.500 59.551 C 294.365 59.116 293.925 59.221 294.972 59.916 C 296.523 60.945 296.629 60.866 291.500 62.469 C 290.675 62.726 290.000 62.501 290.000 61.969 C 290.000 61.436 289.523 61.000 288.941 61.000 C 288.359 61.000 288.148 61.431 288.474 61.957 C 288.799 62.484 287.726 63.607 286.089 64.454 C 284.218 65.422 282.885 65.623 282.498 64.996 C 282.159 64.448 281.346 64.007 280.691 64.015 C 279.961 64.025 280.068 64.390 280.966 64.958 C 282.134 65.697 281.829 66.125 279.466 67.066 C 277.835 67.715 275.066 68.354 273.313 68.486 C 270.793 68.675 270.374 68.989 271.313 69.985 C 272.266 70.997 272.033 71.004 270.129 70.023 C 268.825 69.350 268.042 69.259 268.389 69.820 C 268.735 70.381 267.441 71.359 265.509 71.997 C 263.579 72.634 262.000 73.570 262.000 74.078 C 262.000 74.585 261.041 75.000 259.868 75.000 C 258.695 75.000 256.231 75.930 254.392 77.067 C 252.552 78.204 250.249 79.052 249.274 78.952 C 248.298 78.852 247.682 78.822 247.905 78.885 C 249.006 79.198 244.460 83.000 242.985 83.000 C 242.047 83.000 239.630 84.119 237.614 85.487 C 234.023 87.924 226.719 90.427 230.000 88.096 C 230.825 87.510 231.024 87.024 230.441 87.015 C 229.859 87.007 228.509 87.676 227.441 88.502 C 225.601 89.927 225.598 89.971 227.386 89.343 C 228.699 88.883 229.139 89.083 228.832 90.003 C 228.590 90.730 227.605 91.441 226.644 91.582 C 225.682 91.723 223.758 92.584 222.367 93.495 C 220.976 94.406 219.205 94.909 218.431 94.612 C 217.649 94.312 217.130 94.612 217.262 95.286 C 217.393 95.954 216.716 96.505 215.759 96.511 C 214.801 96.516 214.050 96.909 214.090 97.383 C 214.164 98.270 206.089 103.988 204.750 103.996 C 204.337 103.998 204.112 103.557 204.250 103.016 C 204.388 102.474 203.600 102.732 202.500 103.587 C 201.400 104.443 200.950 104.890 201.500 104.580 C 203.441 103.486 204.059 104.022 203.044 105.919 C 202.479 106.974 200.694 108.128 199.077 108.483 C 197.461 108.838 195.602 109.775 194.947 110.564 C 193.530 112.271 191.569 112.506 192.595 110.845 C 193.041 110.124 192.869 109.963 192.138 110.415 C 191.494 110.813 191.209 111.529 191.504 112.007 C 192.072 112.926 183.179 119.512 182.409 118.743 C 182.162 118.495 183.781 116.989 186.007 115.396 L 190.054 112.500 185.431 115.320 C 182.888 116.872 181.072 118.405 181.395 118.728 C 182.136 119.469 180.094 122.000 178.755 122.000 C 178.205 122.000 178.365 121.213 179.110 120.250 C 180.207 118.833 180.039 118.864 178.227 120.411 C 176.995 121.461 176.212 122.545 176.485 122.819 C 177.139 123.473 175.021 126.000 173.819 126.000 C 173.303 126.000 173.200 125.438 173.588 124.750 C 174.152 123.750 174.024 123.750 172.947 124.750 C 172.206 125.438 171.970 126.000 172.422 126.000 C 172.875 126.000 172.685 126.675 172.000 127.500 C 170.498 129.310 168.574 129.513 169.633 127.750 C 170.149 126.890 169.859 126.926 168.703 127.863 C 167.778 128.613 167.237 129.575 167.500 130.000 C 168.164 131.075 165.297 133.302 164.157 132.597 C 163.645 132.281 162.671 132.692 161.991 133.511 C 161.311 134.330 161.046 135.000 161.401 135.000 C 161.756 135.000 161.309 136.125 160.408 137.500 C 159.507 138.875 158.068 140.000 157.211 140.000 C 156.006 140.000 156.200 139.375 158.066 137.250 C 159.470 135.651 158.914 135.965 156.737 138.000 C 154.678 139.925 153.445 141.387 153.997 141.250 C 154.549 141.112 155.000 141.226 155.000 141.503 C 155.000 142.444 146.709 149.500 145.602 149.500 C 144.996 149.500 145.613 148.713 146.973 147.750 C 148.332 146.788 149.000 146.000 148.455 146.000 C 147.911 146.000 142.524 151.034 136.483 157.187 C 130.442 163.340 126.288 167.785 127.250 167.065 C 128.218 166.340 129.000 166.204 129.000 166.759 C 129.000 168.127 122.865 174.035 122.000 173.500 C 121.618 173.264 120.000 174.500 118.403 176.247 C 116.806 177.994 116.288 178.823 117.250 178.089 C 119.547 176.338 119.433 177.901 117.056 180.750 C 115.057 183.146 113.378 183.840 114.633 181.750 C 115.149 180.890 114.859 180.926 113.703 181.863 C 112.778 182.613 112.212 183.535 112.445 183.911 C 113.074 184.929 111.250 187.500 109.898 187.500 C 109.252 187.500 108.580 188.850 108.406 190.500 C 108.094 193.448 104.525 197.443 103.029 196.518 C 102.610 196.259 101.420 197.049 100.384 198.274 L 98.500 200.500 100.750 198.595 C 104.044 195.806 103.496 197.688 99.643 202.397 C 97.797 204.654 95.967 207.513 95.576 208.750 C 94.935 210.778 93.873 211.444 91.779 211.128 C 91.383 211.068 89.930 212.703 88.551 214.760 C 87.171 216.817 86.483 218.388 87.021 218.250 C 88.603 217.846 88.152 219.537 85.920 222.375 C 84.776 223.829 83.431 224.766 82.931 224.458 C 82.432 224.149 82.290 224.593 82.617 225.445 C 83.297 227.217 77.241 237.267 75.967 236.480 C 75.511 236.198 74.813 236.494 74.415 237.138 C 73.930 237.923 74.128 238.039 75.015 237.490 C 75.990 236.888 76.163 237.134 75.670 238.418 C 75.301 239.378 75.000 240.352 75.000 240.582 C 75.000 240.812 74.550 241.000 74.000 241.000 C 73.450 241.000 73.113 240.460 73.250 239.800 C 73.388 239.141 72.893 239.645 72.150 240.921 C 71.121 242.690 71.102 243.055 72.070 242.457 C 72.982 241.893 73.151 242.164 72.670 243.418 C 72.301 244.378 72.000 245.625 72.000 246.189 C 72.000 246.753 71.339 246.960 70.532 246.651 C 69.725 246.341 68.755 246.587 68.378 247.198 C 67.962 247.871 68.146 248.028 68.845 247.595 C 70.448 246.605 70.291 247.573 68.250 251.264 C 66.496 254.436 66.295 254.232 67.495 250.500 C 67.949 249.088 67.708 249.221 66.677 250.950 C 65.873 252.297 65.429 253.954 65.689 254.633 C 66.323 256.284 57.044 274.145 55.915 273.448 C 55.428 273.147 55.276 274.160 55.577 275.700 C 55.925 277.482 55.538 279.227 54.510 280.500 C 52.934 282.454 52.911 282.443 53.514 280.000 C 53.988 278.080 53.889 277.848 53.088 279.000 C 52.515 279.825 52.316 281.400 52.647 282.500 C 52.978 283.600 52.904 284.174 52.484 283.776 C 52.063 283.378 51.580 284.603 51.410 286.498 C 51.076 290.223 49.185 294.518 48.279 293.612 C 47.971 293.304 47.578 294.625 47.405 296.547 C 46.999 301.078 46.052 302.649 44.809 300.857 C 44.166 299.928 44.081 300.250 44.542 301.875 C 44.946 303.304 44.831 304.013 44.252 303.655 C 43.705 303.317 43.472 304.020 43.714 305.283 C 43.947 306.505 43.632 308.839 43.012 310.469 C 42.098 312.873 41.695 313.156 40.877 311.966 C 40.098 310.833 40.002 310.978 40.456 312.605 C 40.779 313.763 40.612 315.788 40.085 317.105 C 39.523 318.509 39.067 318.879 38.983 318.000 C 38.904 317.175 38.723 318.789 38.580 321.586 C 38.284 327.379 37.222 329.977 35.974 327.959 C 35.548 327.268 35.324 329.020 35.477 331.852 C 35.629 334.683 35.431 337.000 35.036 337.000 C 34.641 337.000 33.757 339.510 33.070 342.578 C 32.384 345.645 31.555 347.888 31.228 347.562 C 30.902 347.235 30.551 348.888 30.448 351.234 C 30.345 353.580 29.691 358.200 28.995 361.500 C 28.008 366.178 27.554 367.059 26.935 365.500 C 26.169 363.572 26.138 363.578 26.070 365.667 C 26.032 366.858 26.497 367.999 27.105 368.202 C 27.896 368.465 27.854 369.754 26.956 372.752 C 26.267 375.052 25.312 376.693 24.835 376.398 C 24.357 376.103 24.213 378.255 24.514 381.181 C 24.815 384.106 24.651 388.750 24.148 391.500 C 23.554 394.757 23.144 395.629 22.973 394.000 C 22.829 392.625 22.616 395.550 22.499 400.500 C 21.735 432.829 20.808 459.525 20.436 459.897 C 20.196 460.137 20.068 462.171 20.150 464.417 L 20.300 468.500 21.000 464.000 L 21.700 459.500 21.926 463.500 C 22.051 465.700 22.343 468.400 22.575 469.500 C 22.807 470.600 23.186 477.575 23.416 485.000 C 23.647 492.425 23.925 497.375 24.033 496.000 C 24.185 494.065 24.393 494.339 24.951 497.207 C 25.347 499.247 25.295 500.682 24.836 500.398 C 24.376 500.114 24.007 500.921 24.015 502.191 C 24.027 503.959 24.243 504.165 24.936 503.069 C 26.183 501.098 27.443 507.992 26.619 512.285 C 26.205 514.445 26.308 515.025 26.933 514.052 C 27.670 512.905 27.962 513.112 28.341 515.052 C 31.243 529.897 32.422 535.157 33.685 538.885 C 34.502 541.296 35.306 545.571 35.471 548.385 C 35.635 551.198 35.822 553.062 35.885 552.527 C 35.948 551.993 36.592 552.443 37.317 553.527 C 39.120 556.229 41.100 565.575 40.307 567.642 C 39.902 568.697 40.056 569.084 40.717 568.675 C 41.298 568.316 42.329 568.692 43.009 569.511 C 43.996 570.700 43.968 571.341 42.872 572.692 C 41.736 574.093 41.733 574.244 42.857 573.567 C 43.906 572.935 44.052 573.260 43.500 575.000 C 42.981 576.635 43.118 577.045 44.000 576.500 C 44.874 575.960 45.047 576.415 44.616 578.125 C 44.288 579.431 44.278 579.935 44.595 579.244 C 45.350 577.596 46.991 578.651 47.031 580.809 C 47.048 581.739 48.154 584.728 49.487 587.451 C 51.428 591.414 51.671 592.699 50.706 593.893 C 49.756 595.067 49.765 595.225 50.750 594.633 C 51.913 593.934 52.300 594.525 52.300 597.000 C 52.300 597.550 52.233 597.475 52.150 596.833 C 52.068 596.192 51.758 595.909 51.463 596.204 C 51.167 596.500 51.504 598.007 52.213 599.553 C 53.105 601.502 53.502 601.803 53.505 600.534 C 53.512 597.855 55.529 600.625 56.392 604.500 C 56.881 606.692 56.787 607.096 56.046 606.000 C 55.331 604.944 55.026 604.879 55.015 605.781 C 55.007 606.486 55.692 607.328 56.537 607.653 C 57.382 607.977 58.732 609.515 59.537 611.072 C 61.248 614.381 61.383 615.355 60.011 614.507 C 59.434 614.150 59.284 614.576 59.651 615.532 C 60.099 616.701 60.488 616.828 61.013 615.978 C 61.492 615.204 62.316 615.927 63.374 618.048 C 65.276 621.861 65.452 623.397 63.874 622.422 C 63.045 621.910 63.037 622.224 63.843 623.613 C 64.470 624.692 64.952 624.939 64.970 624.191 C 64.986 623.471 65.472 623.174 66.049 623.530 C 66.754 623.966 66.672 624.703 65.799 625.781 C 64.902 626.887 64.875 627.159 65.712 626.657 C 67.045 625.856 71.624 633.710 70.486 634.847 C 70.127 635.206 70.433 635.500 71.167 635.500 C 71.900 635.500 72.500 636.063 72.500 636.750 C 72.500 637.438 72.163 638.000 71.750 638.000 C 70.786 638.000 71.639 638.214 73.246 638.375 C 73.931 638.444 75.721 640.750 77.223 643.500 C 80.249 649.042 80.840 651.431 78.445 648.441 C 76.946 646.571 76.929 646.581 77.960 648.713 C 78.579 649.993 79.618 650.700 80.425 650.390 C 81.282 650.061 82.099 650.750 82.546 652.178 C 82.946 653.455 84.356 655.794 85.678 657.376 C 87.001 658.958 87.929 660.712 87.742 661.275 C 87.554 661.838 85.848 659.934 83.950 657.044 C 82.053 654.154 80.617 652.301 80.760 652.926 C 81.352 655.508 88.332 664.913 89.240 664.352 C 89.781 664.017 90.616 664.364 91.096 665.122 C 92.541 667.403 92.111 668.334 90.289 666.872 C 89.348 666.118 89.686 666.967 91.039 668.759 C 92.393 670.552 93.115 671.312 92.644 670.448 C 92.174 669.584 91.962 668.705 92.173 668.493 C 92.949 667.718 94.751 669.565 95.472 671.875 C 96.048 673.717 95.909 674.077 94.857 673.479 C 93.763 672.856 93.742 672.967 94.750 674.053 C 95.437 674.794 96.000 675.015 96.000 674.545 C 96.000 674.075 96.900 674.505 98.000 675.500 C 100.763 678.000 100.532 679.760 97.750 677.405 L 95.500 675.500 97.369 677.710 C 98.397 678.926 99.747 679.826 100.369 679.710 C 100.991 679.595 101.500 680.063 101.500 680.750 C 101.500 681.438 101.275 682.043 101.000 682.095 C 100.725 682.148 100.838 682.400 101.250 682.655 C 101.663 682.909 102.000 682.826 102.000 682.470 C 102.000 682.114 103.385 682.987 105.077 684.411 C 106.769 685.835 107.804 687.000 107.377 687.000 C 106.950 687.000 107.140 687.540 107.800 688.200 C 108.460 688.860 109.000 689.863 109.000 690.430 C 109.000 690.996 107.517 689.894 105.704 687.980 C 103.822 685.993 104.065 686.430 106.271 689.000 C 108.396 691.475 109.793 692.825 109.375 692.000 C 108.722 690.709 108.852 690.691 110.308 691.872 C 112.261 693.456 112.613 695.471 110.750 694.398 C 110.063 694.002 110.560 694.843 111.856 696.267 C 113.153 697.690 114.782 698.637 115.477 698.370 C 116.796 697.864 118.362 700.605 117.527 701.957 C 117.263 702.383 117.937 703.538 119.024 704.521 C 120.111 705.505 121.000 705.931 121.000 705.468 C 121.000 705.005 122.350 705.919 124.000 707.500 C 127.030 710.403 128.055 712.702 125.750 711.426 C 125.063 711.046 129.900 716.181 136.500 722.838 C 143.100 729.496 148.387 734.506 148.250 733.971 C 147.784 732.159 149.616 732.989 152.327 735.819 C 153.813 737.370 154.794 738.873 154.508 739.159 C 154.222 739.445 154.995 740.539 156.227 741.589 C 158.039 743.136 158.207 743.167 157.110 741.750 C 155.945 740.246 155.983 740.000 157.378 740.000 C 158.270 740.000 159.000 740.685 159.000 741.521 C 159.000 742.358 160.125 743.555 161.500 744.182 C 162.875 744.808 164.000 745.754 164.000 746.283 C 164.000 746.812 163.213 746.644 162.250 745.911 C 161.288 745.177 161.822 746.022 163.438 747.789 C 165.054 749.556 167.079 750.889 167.938 750.751 C 168.797 750.613 169.396 751.038 169.268 751.695 C 168.975 753.207 175.039 757.592 176.847 757.177 C 177.592 757.006 177.923 757.315 177.584 757.864 C 177.245 758.413 177.494 759.187 178.138 759.585 C 178.869 760.037 179.041 759.876 178.595 759.155 C 178.203 758.520 178.303 758.000 178.819 758.000 C 180.039 758.000 182.135 760.532 181.467 761.200 C 181.184 761.483 181.750 762.342 182.726 763.107 C 184.339 764.374 184.376 764.341 183.128 762.750 C 182.310 761.707 182.185 761.000 182.819 761.000 C 183.903 761.000 185.457 762.895 185.485 764.250 C 185.493 764.663 185.838 765.000 186.250 765.000 C 186.663 765.000 186.775 764.933 186.500 764.850 C 186.225 764.768 186.563 764.655 187.250 764.600 C 187.938 764.545 188.393 765.045 188.263 765.711 C 188.133 766.377 190.158 768.321 192.763 770.032 C 196.529 772.504 196.885 772.616 194.500 770.576 C 192.850 769.165 191.869 768.008 192.320 768.005 C 193.888 767.995 201.972 774.085 201.737 775.099 C 201.607 775.660 202.944 776.880 204.710 777.810 L 207.920 779.500 204.710 777.267 C 200.651 774.443 202.136 774.303 206.638 777.085 C 208.494 778.232 209.777 779.551 209.490 780.016 C 209.203 780.481 209.494 781.187 210.138 781.585 C 210.923 782.070 211.039 781.872 210.490 780.985 C 209.888 780.010 210.134 779.837 211.418 780.330 C 212.378 780.699 213.352 781.000 213.582 781.000 C 213.812 781.000 214.000 781.477 214.000 782.059 C 214.000 782.641 213.438 782.833 212.750 782.485 C 212.063 782.137 212.400 782.579 213.500 783.469 C 214.600 784.358 215.500 784.678 215.500 784.178 C 215.500 783.677 216.618 783.747 218.000 784.335 C 220.160 785.255 220.228 785.411 218.500 785.486 C 216.667 785.565 216.698 785.682 218.871 786.886 C 220.276 787.664 220.964 787.752 220.562 787.100 C 219.530 785.430 222.577 785.785 224.000 787.500 C 224.685 788.325 225.077 789.052 224.872 789.115 C 224.668 789.178 225.349 789.140 226.388 789.029 C 227.426 788.918 228.647 789.429 229.101 790.164 C 229.616 790.996 229.469 791.513 228.714 791.535 C 228.046 791.555 228.567 792.162 229.871 792.885 C 231.274 793.663 231.964 793.751 231.562 793.100 C 231.188 792.495 231.194 792.000 231.575 792.000 C 232.733 792.000 254.428 803.036 255.500 804.170 C 256.050 804.752 255.060 804.502 253.300 803.614 C 248.823 801.356 247.741 801.670 252.000 803.991 C 253.925 805.040 256.214 805.690 257.087 805.434 C 257.960 805.178 260.660 805.815 263.087 806.849 C 265.514 807.884 268.400 809.108 269.500 809.570 L 271.500 810.410 269.500 810.557 C 266.700 810.763 267.856 811.167 272.010 811.435 C 273.940 811.559 280.587 813.576 286.781 815.917 C 292.975 818.258 299.619 820.608 301.547 821.141 C 303.719 821.740 304.789 822.532 304.362 823.224 C 303.907 823.960 304.266 824.112 305.415 823.671 C 307.883 822.724 312.627 823.988 310.845 825.117 C 309.936 825.693 309.886 825.974 310.691 825.985 C 311.346 825.993 312.148 825.570 312.473 825.044 C 312.798 824.518 313.762 824.355 314.616 824.683 C 315.870 825.164 315.912 825.440 314.834 826.124 C 313.812 826.771 313.910 826.973 315.250 826.985 C 316.213 826.993 317.000 826.597 317.000 826.105 C 317.000 825.613 319.683 826.045 322.962 827.065 C 326.242 828.086 331.304 829.206 334.212 829.555 C 340.441 830.302 342.162 830.605 347.500 831.898 C 349.700 832.430 354.342 833.414 357.815 834.084 C 362.184 834.926 363.725 835.585 362.815 836.222 C 361.985 836.803 363.277 836.905 366.321 836.499 C 368.973 836.146 374.148 836.200 377.821 836.619 C 383.519 837.270 384.059 837.490 381.500 838.115 C 379.784 838.535 381.496 838.650 385.500 838.384 C 400.155 837.413 411.558 837.281 413.071 838.065 C 413.934 838.512 416.583 838.386 418.956 837.783 C 422.240 836.950 423.743 836.983 425.247 837.922 C 426.518 838.716 428.881 838.932 431.862 838.527 C 436.100 837.952 450.168 837.785 457.500 838.224 C 459.150 838.323 459.375 838.253 458.000 838.068 C 456.348 837.847 457.133 837.506 460.313 837.063 C 462.960 836.695 465.349 836.755 465.622 837.197 C 465.895 837.639 467.104 837.955 468.309 837.900 C 470.328 837.808 470.303 837.744 468.000 837.081 C 464.620 836.108 476.431 834.689 481.736 835.430 C 484.508 835.818 484.842 835.744 483.000 835.148 C 480.943 834.483 481.829 834.114 488.000 833.066 C 492.125 832.365 497.659 831.207 500.297 830.492 C 502.936 829.776 507.366 829.314 510.142 829.463 C 512.918 829.613 514.659 829.407 514.010 829.006 C 513.205 828.509 513.413 828.111 514.665 827.754 C 527.376 824.129 532.819 822.980 534.949 823.472 C 536.815 823.903 537.105 823.798 536.028 823.084 C 534.732 822.224 534.732 822.053 536.028 821.650 C 536.838 821.398 538.288 820.938 539.250 820.627 C 540.213 820.317 541.000 820.499 541.000 821.031 C 541.000 821.564 541.477 822.000 542.059 822.000 C 542.641 822.000 542.872 821.602 542.572 821.116 C 541.732 819.758 547.571 817.729 550.052 818.516 C 551.409 818.947 552.016 818.835 551.639 818.224 C 550.997 817.187 558.360 813.634 563.500 812.500 C 565.772 811.999 566.136 812.097 565.000 812.904 C 563.126 814.235 564.953 814.323 567.000 813.000 C 567.825 812.467 568.062 812.024 567.527 812.015 C 565.842 811.989 570.307 809.436 575.256 807.597 C 577.872 806.625 579.783 805.458 579.502 805.003 C 578.869 803.979 581.008 804.249 582.905 805.433 C 583.908 806.059 584.087 805.949 583.529 805.047 C 582.949 804.108 583.357 803.958 585.125 804.458 C 586.789 804.930 587.085 804.844 586.115 804.173 C 584.999 803.401 585.164 802.983 586.967 802.018 C 588.198 801.359 590.059 801.044 591.104 801.317 C 592.148 801.590 592.763 801.425 592.470 800.951 C 591.631 799.595 596.782 796.710 599.003 797.291 C 600.275 797.623 600.761 797.422 600.337 796.737 C 599.912 796.049 600.292 795.898 601.388 796.319 C 602.357 796.691 602.852 796.569 602.524 796.039 C 601.744 794.777 605.778 792.701 607.630 793.412 C 608.441 793.723 608.848 793.563 608.535 793.057 C 607.845 791.940 611.845 788.984 613.973 789.040 C 614.866 789.063 614.322 789.790 612.662 790.790 L 609.824 792.500 612.970 791.248 C 614.700 790.559 615.861 789.585 615.551 789.083 C 615.241 788.581 616.506 787.232 618.362 786.085 C 622.111 783.769 623.463 783.441 622.438 785.100 C 622.056 785.718 622.775 785.609 624.079 784.850 C 625.355 784.107 625.859 783.613 625.200 783.750 C 623.787 784.044 623.584 782.375 624.931 781.543 C 625.443 781.226 626.224 781.537 626.666 782.234 C 627.270 783.185 627.473 783.198 627.485 782.284 C 627.493 781.616 629.653 779.703 632.285 778.034 C 637.443 774.763 638.509 774.367 637.422 776.126 C 636.910 776.955 637.224 776.963 638.613 776.157 C 639.651 775.554 639.938 775.047 639.250 775.030 C 638.563 775.014 638.000 774.498 638.000 773.883 C 638.000 773.269 638.866 772.993 639.925 773.270 C 641.276 773.623 641.692 773.360 641.318 772.387 C 640.996 771.546 641.442 771.000 642.452 771.000 C 643.457 771.000 643.835 771.458 643.405 772.155 C 642.959 772.876 643.131 773.037 643.862 772.585 C 644.506 772.187 644.793 771.474 644.500 770.999 C 644.206 770.525 644.974 769.431 646.206 768.568 C 648.718 766.809 650.124 766.548 649.750 767.911 C 649.613 768.412 651.525 767.316 654.000 765.475 C 656.475 763.634 658.539 761.762 658.586 761.314 C 658.807 759.237 660.303 757.069 661.153 757.595 C 661.708 757.938 661.562 758.862 660.799 759.839 C 659.633 761.330 659.682 761.357 661.274 760.107 C 662.250 759.342 662.834 758.501 662.572 758.238 C 661.992 757.659 663.447 756.278 668.027 753.059 C 670.832 751.087 671.221 750.991 670.048 752.559 C 669.130 753.787 669.081 754.072 669.914 753.334 C 670.639 752.693 671.742 751.154 672.366 749.913 C 672.990 748.673 674.175 747.437 675.000 747.166 C 676.328 746.731 676.330 746.894 675.017 748.587 C 673.668 750.328 673.739 750.320 675.808 748.500 C 677.058 747.400 677.613 746.613 677.040 746.750 C 676.468 746.888 676.000 746.598 676.000 746.107 C 676.000 745.019 678.887 743.812 679.937 744.461 C 680.353 744.718 682.000 743.525 683.597 741.810 C 685.194 740.094 685.938 739.012 685.250 739.404 C 682.703 740.859 684.142 738.947 689.100 734.290 C 695.390 728.381 697.730 727.381 693.001 732.622 L 689.503 736.500 693.710 732.587 C 696.024 730.436 697.680 728.291 697.390 727.823 C 697.101 727.354 698.919 725.056 701.432 722.716 C 703.944 720.376 706.000 717.956 706.000 717.338 C 706.000 716.720 706.712 715.941 707.582 715.607 C 710.229 714.591 710.391 714.903 708.433 717.250 C 707.401 718.488 708.678 717.475 711.272 715.000 C 713.865 712.525 715.539 710.613 714.993 710.750 C 713.359 711.161 713.916 709.668 716.484 706.750 C 718.993 703.899 720.181 703.266 719.750 705.011 C 719.613 705.567 720.850 704.572 722.500 702.799 C 724.150 701.027 724.713 700.177 723.750 700.911 C 721.621 702.534 721.388 700.753 723.500 699.000 C 724.325 698.315 725.000 698.105 725.000 698.533 C 725.000 698.960 725.851 698.540 726.892 697.598 C 728.016 696.581 728.577 695.098 728.275 693.943 C 727.995 692.874 728.269 691.944 728.883 691.875 C 729.498 691.806 730.427 691.694 730.950 691.625 C 731.472 691.556 732.485 690.871 733.200 690.103 C 734.158 689.074 734.171 688.892 733.250 689.412 C 731.668 690.305 731.668 689.566 733.250 686.736 C 734.386 684.704 736.734 682.616 738.000 682.511 C 739.424 682.393 740.956 680.739 740.430 679.887 C 740.099 679.351 740.654 677.773 741.664 676.382 L 743.500 673.851 742.500 676.513 C 741.589 678.938 741.717 678.884 743.947 675.906 C 745.292 674.109 745.855 672.972 745.197 673.378 C 743.726 674.287 743.673 673.479 745.035 670.934 C 746.134 668.882 748.172 668.250 747.750 670.092 C 747.613 670.693 748.366 669.905 749.425 668.342 C 750.949 666.091 751.001 665.785 749.675 666.872 C 748.685 667.683 748.000 667.810 748.000 667.181 C 748.000 666.152 749.717 664.677 751.250 664.390 C 751.663 664.313 751.759 664.194 751.465 664.125 C 751.170 664.056 751.492 662.988 752.179 661.750 C 752.867 660.513 753.501 660.063 753.590 660.750 C 753.678 661.438 753.860 661.663 753.993 661.250 C 754.127 660.838 754.177 660.144 754.105 659.709 C 753.858 658.229 756.097 654.942 756.981 655.488 C 757.465 655.788 758.187 655.506 758.585 654.862 C 759.037 654.131 758.876 653.959 758.155 654.405 C 756.384 655.499 756.766 652.439 758.589 650.926 C 759.956 649.792 760.130 649.880 759.839 651.554 C 759.565 653.127 759.758 653.046 760.850 651.129 C 761.616 649.784 761.724 649.053 761.100 649.438 C 760.495 649.812 760.000 649.867 760.000 649.560 C 760.000 648.775 765.368 638.626 766.110 638.008 C 766.446 637.729 767.492 635.996 768.434 634.157 C 770.309 630.499 771.540 630.393 770.286 633.998 C 769.854 635.241 770.325 634.800 771.333 633.019 C 772.341 631.237 772.678 630.081 772.083 630.449 C 770.468 631.447 770.775 628.766 772.568 626.206 C 773.431 624.974 774.626 624.269 775.223 624.638 C 775.871 625.039 776.022 624.844 775.595 624.155 C 775.203 623.520 775.296 623.000 775.802 623.000 C 776.309 623.000 776.494 621.801 776.213 620.336 C 775.785 618.094 775.988 617.781 777.494 618.359 C 779.074 618.966 779.120 618.846 777.891 617.336 C 776.671 615.835 776.708 615.704 778.199 616.262 C 779.367 616.699 779.737 616.479 779.384 615.558 C 778.617 613.559 785.884 598.810 787.227 599.640 C 787.949 600.087 788.116 599.744 787.701 598.664 C 786.947 596.697 787.861 593.796 789.012 594.507 C 789.453 594.780 789.572 594.079 789.277 592.950 C 788.710 590.781 791.887 583.812 793.101 584.563 C 793.493 584.805 793.560 584.032 793.249 582.845 C 792.813 581.178 793.005 580.880 794.092 581.536 C 795.243 582.229 795.275 582.106 794.267 580.860 C 793.277 579.637 793.337 578.958 794.569 577.418 C 796.037 575.583 796.077 575.609 795.486 578.000 C 795.030 579.847 795.130 580.120 795.869 579.047 C 796.419 578.248 796.640 576.448 796.361 575.047 C 796.072 573.597 796.780 570.347 798.005 567.500 C 799.188 564.750 800.735 560.250 801.442 557.500 C 802.150 554.750 803.076 552.725 803.501 553.000 C 803.926 553.275 804.345 551.250 804.432 548.500 C 804.587 543.623 806.711 537.723 807.132 541.000 C 807.238 541.825 807.393 541.150 807.476 539.500 C 807.559 537.850 807.742 535.375 807.884 534.000 C 808.125 531.654 808.199 531.623 809.081 533.500 C 809.786 534.999 809.885 534.575 809.477 531.810 C 808.794 527.186 809.871 522.200 811.131 524.155 C 811.660 524.977 811.757 524.250 811.381 522.287 C 810.574 518.081 811.751 512.993 813.053 515.052 C 813.811 516.250 813.972 516.198 813.985 514.750 C 813.993 513.788 813.628 513.000 813.173 513.000 C 812.718 513.000 812.573 511.538 812.850 509.750 C 813.342 506.580 813.373 506.562 814.129 509.000 C 814.575 510.439 814.664 509.065 814.338 505.763 C 814.027 502.607 814.124 498.332 814.553 496.263 L 815.333 492.500 816.087 495.500 C 816.568 497.417 816.696 496.152 816.440 492.000 C 816.160 487.445 816.303 486.248 816.920 488.000 C 817.747 490.347 817.807 490.366 817.900 488.309 C 817.955 487.104 817.653 485.904 817.229 485.642 C 816.806 485.380 816.997 478.716 817.655 470.833 C 819.208 452.223 819.207 428.256 817.651 409.682 C 816.968 401.533 816.767 394.644 817.205 394.373 C 817.642 394.103 817.947 392.671 817.882 391.191 L 817.763 388.500 816.921 391.500 C 816.317 393.655 816.192 392.669 816.479 388.000 C 816.719 384.108 816.573 382.503 816.116 384.000 C 815.398 386.352 815.313 386.380 814.678 384.468 C 814.307 383.351 813.829 378.538 813.615 373.772 C 813.401 369.007 812.991 365.342 812.704 365.629 C 812.117 366.216 811.520 364.346 810.427 358.500 C 810.015 356.300 809.511 353.825 809.306 353.000 C 809.101 352.175 808.772 349.025 808.574 346.000 C 808.376 342.975 808.089 340.950 807.936 341.500 C 807.783 342.050 807.574 341.600 807.471 340.500 C 807.367 339.400 807.219 338.927 807.142 339.450 C 807.064 339.972 806.490 339.890 805.866 339.266 C 805.242 338.642 804.585 335.740 804.406 332.816 C 804.226 329.892 804.035 327.950 803.981 328.500 C 803.884 329.489 799.791 318.572 797.876 312.216 C 797.332 310.409 797.167 307.934 797.509 306.716 C 798.019 304.897 797.924 304.769 796.979 306.000 C 796.027 307.239 795.912 307.109 796.320 305.249 C 796.591 304.010 796.433 303.232 795.968 303.520 C 795.503 303.807 794.130 301.319 792.916 297.990 C 791.703 294.662 790.325 291.701 789.855 291.410 C 789.385 291.120 789.000 289.994 789.000 288.908 C 789.000 287.822 787.933 284.811 786.630 282.217 C 785.326 279.623 783.957 276.375 783.588 275.000 L 782.917 272.500 784.423 275.000 C 786.450 278.365 786.397 276.901 784.335 272.577 C 783.420 270.657 782.317 269.304 781.885 269.571 C 780.738 270.280 778.749 266.097 779.412 264.370 C 779.775 263.424 779.562 263.152 778.819 263.612 C 778.038 264.095 777.875 263.769 778.319 262.612 C 778.691 261.643 778.569 261.148 778.039 261.476 C 776.815 262.233 774.691 258.248 775.372 256.473 C 775.724 255.556 775.389 255.297 774.359 255.692 C 773.195 256.139 772.896 255.700 773.133 253.892 C 773.306 252.576 773.009 251.382 772.473 251.239 C 771.938 251.095 771.495 250.312 771.489 249.497 C 771.484 248.683 771.038 248.126 770.499 248.259 C 769.960 248.391 768.749 246.925 767.807 245.000 C 765.770 240.833 765.592 239.630 767.155 240.595 C 767.876 241.041 768.037 240.869 767.585 240.138 C 767.187 239.494 766.492 239.196 766.040 239.475 C 765.079 240.069 761.982 235.663 762.040 233.785 C 762.062 233.078 762.850 233.777 763.790 235.338 L 765.500 238.176 764.248 235.030 C 763.559 233.300 762.581 232.141 762.074 232.454 C 761.232 232.975 759.365 230.708 756.343 225.496 C 755.707 224.398 754.694 223.612 754.093 223.750 C 753.492 223.887 753.000 222.848 753.000 221.441 C 753.000 219.761 753.397 219.127 754.155 219.595 C 754.876 220.041 755.037 219.869 754.585 219.138 C 754.187 218.494 753.366 218.274 752.761 218.648 C 752.057 219.083 751.886 218.740 752.286 217.696 C 752.631 216.798 752.413 215.755 751.802 215.378 C 751.064 214.921 750.975 215.162 751.537 216.095 C 752.258 217.292 752.133 217.296 750.692 216.128 C 748.966 214.727 748.395 212.905 749.750 213.118 C 750.712 213.270 750.246 212.796 749.250 212.610 C 747.717 212.323 746.000 210.848 746.000 209.819 C 746.000 209.185 746.707 209.310 747.750 210.128 C 749.323 211.361 749.366 211.329 748.177 209.809 C 747.449 208.880 746.324 208.317 745.677 208.560 C 744.117 209.145 739.616 202.444 740.326 200.594 C 740.631 199.798 740.120 198.551 739.191 197.823 C 737.671 196.634 737.639 196.677 738.872 198.250 C 739.627 199.213 739.852 199.990 739.372 199.978 C 737.926 199.943 731.723 192.018 726.277 183.248 C 725.850 182.560 728.200 185.139 731.500 188.980 C 734.800 192.821 737.095 195.239 736.601 194.354 C 734.782 191.100 725.791 180.876 725.236 181.431 C 724.546 182.120 721.000 179.069 721.000 177.786 C 721.000 177.289 721.554 177.224 722.232 177.643 C 722.909 178.062 722.389 177.076 721.075 175.452 C 719.762 173.828 718.969 173.288 719.312 174.250 C 720.363 177.192 718.502 176.209 715.167 172.059 C 711.083 166.976 711.121 165.838 715.250 169.538 C 717.038 171.139 712.425 166.287 705.000 158.755 C 697.575 151.223 691.613 145.497 691.750 146.030 C 691.888 146.564 691.663 146.987 691.250 146.971 C 690.321 146.934 684.000 141.246 684.000 140.446 C 684.000 140.126 685.463 140.845 687.250 142.044 C 689.835 143.777 689.681 143.516 686.500 140.769 C 684.300 138.868 682.867 137.918 683.315 138.657 C 683.764 139.396 683.729 140.000 683.240 140.000 C 682.015 140.000 677.859 135.475 678.497 134.836 C 678.780 134.553 678.005 133.461 676.773 132.411 C 674.961 130.864 674.793 130.833 675.890 132.250 C 677.440 134.251 676.759 134.477 673.857 132.923 C 672.750 132.331 672.083 131.226 672.375 130.466 C 672.684 129.660 671.256 127.717 668.940 125.793 C 666.759 123.982 664.981 122.725 664.988 123.000 C 664.994 123.275 664.438 123.500 663.750 123.500 C 663.063 123.500 662.500 122.960 662.500 122.300 C 662.500 121.640 661.847 120.515 661.048 119.800 C 659.795 118.678 659.778 118.739 660.921 120.250 C 662.829 122.772 660.669 122.410 658.405 119.828 C 657.214 118.471 657.063 117.980 658.000 118.520 C 659.333 119.288 659.333 119.179 658.000 117.538 C 657.175 116.523 656.613 116.099 656.750 116.596 C 656.888 117.093 656.438 117.500 655.750 117.500 C 655.063 117.500 654.444 116.938 654.375 116.250 C 654.306 115.563 654.140 114.888 654.007 114.750 C 653.873 114.613 653.816 114.838 653.882 115.250 C 654.134 116.848 651.621 115.868 647.889 112.912 C 645.745 111.214 644.209 109.472 644.475 109.040 C 645.103 108.025 634.001 100.640 632.014 100.752 C 629.049 100.918 624.969 98.758 625.235 97.163 C 625.398 96.188 624.733 95.535 623.500 95.462 C 618.284 95.150 617.799 94.967 618.356 93.515 C 618.706 92.602 618.073 91.618 616.713 90.960 C 614.581 89.929 614.571 89.946 616.441 91.445 C 619.325 93.756 617.021 93.320 613.000 90.794 C 611.075 89.585 610.175 88.558 611.000 88.512 C 611.954 88.459 611.637 87.951 610.129 87.115 C 608.424 86.169 607.968 86.139 608.505 87.007 C 609.569 88.729 606.756 87.702 598.711 83.430 C 595.005 81.462 592.228 79.441 592.539 78.937 C 592.850 78.434 592.476 78.264 591.708 78.558 C 590.941 78.853 588.105 78.224 585.406 77.160 C 582.708 76.097 580.061 75.209 579.525 75.188 C 578.989 75.167 578.373 74.619 578.157 73.970 C 577.891 73.174 578.533 73.000 580.132 73.437 C 582.487 74.080 582.486 74.075 580.000 72.577 C 577.177 70.876 574.692 70.465 577.000 72.081 C 578.143 72.881 577.905 72.965 576.000 72.432 C 570.824 70.985 568.898 69.973 569.492 69.013 C 569.856 68.424 569.409 68.290 568.388 68.681 C 567.301 69.098 566.913 68.949 567.330 68.275 C 567.692 67.689 567.279 66.937 566.412 66.605 C 564.001 65.679 563.331 65.911 565.000 67.094 C 567.431 68.816 562.807 67.571 550.001 63.055 C 543.677 60.825 537.677 59.000 536.668 59.000 C 535.659 59.000 535.001 58.497 535.206 57.882 C 535.429 57.214 533.952 56.626 531.539 56.421 C 527.296 56.060 525.475 55.693 523.000 54.700 C 522.175 54.369 519.475 53.530 517.000 52.835 C 513.125 51.747 512.917 51.567 515.500 51.536 C 518.273 51.503 518.319 51.447 516.101 50.805 C 514.782 50.422 512.307 50.348 510.601 50.639 C 508.379 51.018 507.899 50.887 508.909 50.177 C 509.901 49.479 508.864 49.279 505.409 49.501 C 502.709 49.674 497.800 49.196 494.500 48.437 C 491.200 47.679 485.125 46.532 481.000 45.889 C 475.449 45.023 474.020 44.509 475.500 43.910 C 476.703 43.424 475.108 43.275 471.500 43.536 C 467.240 43.844 466.225 43.713 468.000 43.085 L 470.500 42.199 467.833 42.100 C 466.367 42.045 465.017 42.411 464.833 42.914 C 464.650 43.417 462.250 43.546 459.500 43.202 C 454.528 42.580 454.520 42.573 458.000 41.920 L 461.500 41.263 458.309 41.132 C 456.554 41.059 454.815 41.490 454.444 42.090 C 454.054 42.721 452.452 42.933 450.635 42.592 C 448.056 42.109 431.551 41.922 421.000 42.258 C 419.625 42.301 417.361 42.012 415.970 41.615 C 414.578 41.218 413.141 41.193 412.775 41.558 M 349.922 589.406 C 350.785 590.446 351.012 603.649 350.794 640.156 C 350.502 689.176 350.485 689.533 348.207 694.500 C 344.473 702.643 339.683 710.000 338.114 710.000 C 337.060 710.000 337.325 709.232 339.062 707.250 C 340.388 705.738 339.567 706.300 337.239 708.500 C 334.910 710.700 333.454 712.388 334.003 712.250 C 335.373 711.906 335.253 712.900 333.750 714.342 C 332.158 715.870 320.591 721.431 316.000 722.875 C 308.976 725.085 293.163 726.053 281.721 724.974 C 275.663 724.402 269.985 723.513 269.103 722.998 C 267.744 722.203 267.728 722.046 269.000 721.960 C 270.020 721.892 269.861 721.585 268.500 721.000 C 265.751 719.819 264.172 719.819 266.000 721.000 C 267.241 721.802 267.155 721.967 265.500 721.953 C 264.400 721.944 262.646 721.290 261.603 720.500 C 260.559 719.710 259.322 719.301 258.853 719.591 C 258.384 719.881 258.000 719.690 258.000 719.167 C 258.000 718.645 256.960 717.956 255.688 717.636 C 250.135 716.243 236.445 699.348 237.491 695.180 C 237.838 693.797 237.686 693.076 237.121 693.425 C 236.209 693.989 234.917 690.828 233.567 684.737 C 232.761 681.097 232.797 592.694 233.605 590.586 C 234.157 589.147 236.433 588.989 253.147 589.229 L 272.063 589.500 272.283 633.000 L 272.502 676.500 272.966 635.000 L 273.431 593.500 273.965 637.178 C 274.480 679.188 274.578 680.964 276.551 683.678 C 279.000 687.047 288.252 692.000 292.096 692.000 C 296.296 692.000 304.115 688.278 304.712 685.995 C 304.999 684.898 305.821 684.000 306.539 684.000 C 309.319 684.000 309.773 676.798 309.608 635.327 C 309.515 612.131 309.790 593.370 310.220 593.636 C 310.649 593.901 311.000 592.977 311.000 591.582 L 311.000 589.045 329.250 588.749 C 339.288 588.585 347.782 588.350 348.128 588.226 C 348.473 588.102 349.280 588.633 349.922 589.406 M 301.000 290.061 C 308.084 292.029 313.993 295.347 310.848 295.591 C 310.106 295.648 309.950 295.817 310.500 295.966 C 311.050 296.115 312.107 296.154 312.848 296.052 C 313.589 295.951 315.070 296.685 316.138 297.684 C 318.058 299.479 318.057 299.494 316.030 299.000 C 314.572 298.644 314.921 299.205 317.240 300.941 C 319.033 302.284 319.882 302.621 319.128 301.691 C 317.945 300.234 317.980 300.000 319.380 300.000 C 320.274 300.000 322.916 302.688 325.252 305.973 C 327.589 309.259 330.063 311.959 330.750 311.973 C 331.438 311.988 332.000 312.493 332.000 313.096 C 332.000 313.698 332.920 315.484 334.045 317.063 C 335.170 318.643 336.269 321.637 336.487 323.717 C 336.706 325.798 336.924 327.050 336.973 326.500 C 337.021 325.950 337.529 326.305 338.101 327.288 C 338.674 328.272 338.858 330.522 338.510 332.288 C 338.099 334.379 338.200 335.034 338.801 334.165 C 339.506 333.145 339.870 333.380 340.348 335.165 C 341.268 338.604 341.022 353.917 340.085 351.517 C 339.439 349.862 339.196 350.142 338.621 353.207 C 338.242 355.227 338.186 357.920 338.496 359.190 C 339.472 363.188 333.102 377.799 330.960 376.475 C 330.508 376.196 329.813 376.494 329.415 377.138 C 328.937 377.912 329.127 378.040 329.975 377.515 C 330.789 377.013 331.111 377.167 330.855 377.936 C 330.632 378.604 330.171 379.004 329.830 378.825 C 328.773 378.271 325.013 382.212 325.636 383.220 C 325.960 383.744 324.736 385.709 322.916 387.586 C 319.248 391.371 316.595 392.299 319.588 388.750 C 321.193 386.847 321.051 386.885 318.662 389.000 C 317.109 390.375 316.438 391.515 317.169 391.533 C 317.901 391.551 316.546 392.821 314.157 394.354 C 311.768 395.888 309.186 396.902 308.419 396.607 C 307.652 396.313 307.072 396.393 307.130 396.786 C 307.393 398.550 306.942 400.276 306.369 399.702 C 306.021 399.355 304.876 399.531 303.823 400.095 C 301.311 401.439 287.212 403.878 286.436 403.102 C 286.104 402.771 281.708 402.488 276.667 402.474 C 268.411 402.451 266.755 402.111 260.000 399.051 C 255.875 397.182 251.507 394.718 250.293 393.576 L 248.086 391.500 250.545 392.500 C 252.173 393.162 251.567 392.338 248.752 390.063 C 246.413 388.172 245.357 387.610 246.405 388.813 C 247.991 390.633 248.050 391.000 246.762 391.000 C 245.911 391.000 244.955 390.325 244.638 389.500 C 244.322 388.675 243.374 388.000 242.531 388.000 C 241.689 388.000 241.000 387.425 241.000 386.722 C 241.000 386.019 240.100 384.674 239.000 383.732 C 236.820 381.865 236.227 379.418 238.250 380.633 C 238.968 381.064 238.861 380.598 238.000 379.538 C 236.917 378.206 236.496 378.083 236.485 379.096 C 236.472 380.232 236.310 380.249 235.635 379.183 C 235.175 378.459 235.054 377.613 235.365 377.302 C 235.675 376.991 235.383 375.806 234.715 374.669 C 233.501 372.603 233.501 372.604 234.000 374.738 C 234.724 377.834 232.815 376.170 230.857 372.000 C 227.666 365.203 226.780 362.012 227.399 359.546 C 227.871 357.667 227.682 357.185 226.633 357.587 C 224.163 358.535 224.451 339.052 227.049 329.427 C 229.187 321.510 232.323 315.019 232.571 318.000 C 232.639 318.825 232.817 319.050 232.966 318.500 C 233.115 317.950 233.173 316.976 233.094 316.336 C 232.900 314.752 238.888 306.000 240.165 306.000 C 240.745 306.000 240.607 306.790 239.844 307.826 C 239.105 308.831 241.200 307.071 244.500 303.916 C 249.282 299.344 249.504 299.019 245.592 302.314 C 242.893 304.588 240.903 305.785 241.170 304.974 C 241.438 304.163 243.647 302.032 246.079 300.237 C 248.510 298.443 251.093 296.485 251.817 295.885 C 252.835 295.044 253.062 295.217 252.817 296.648 C 252.571 298.087 253.116 297.852 255.260 295.593 C 256.778 293.995 258.353 293.020 258.760 293.427 C 259.167 293.834 259.500 293.612 259.500 292.934 C 259.500 291.229 266.229 288.924 274.000 287.966 C 282.895 286.870 292.075 287.582 301.000 290.061 M 575.750 154.892 C 578.638 156.047 581.000 156.751 581.000 156.457 C 581.000 156.163 582.013 156.895 583.250 158.084 C 585.495 160.242 585.495 160.244 583.316 159.123 C 582.114 158.506 580.764 158.020 580.316 158.044 C 579.867 158.069 581.236 159.004 583.358 160.124 C 585.480 161.243 586.869 161.596 586.444 160.909 C 585.877 159.993 586.181 159.870 587.586 160.449 C 588.639 160.883 590.078 161.260 590.785 161.286 C 591.491 161.312 591.941 162.110 591.785 163.059 C 591.487 164.860 594.610 169.000 596.266 169.000 C 596.791 169.000 596.159 168.075 594.861 166.944 C 592.966 165.293 592.895 165.080 594.500 165.862 C 597.182 167.169 601.000 170.832 601.000 172.098 C 601.000 172.659 600.438 172.789 599.750 172.387 C 599.063 171.985 599.400 172.681 600.500 173.933 C 601.600 175.185 602.500 175.665 602.500 175.000 C 602.500 173.046 605.673 177.105 608.960 183.266 C 611.938 188.846 613.317 194.374 610.890 191.000 C 609.993 189.752 609.911 189.808 610.406 191.332 C 610.733 192.339 611.007 193.689 611.015 194.332 C 611.025 195.088 611.331 195.025 611.884 194.154 C 613.582 191.473 615.000 199.233 614.944 210.899 C 614.889 222.115 613.572 229.134 611.500 229.250 C 610.950 229.281 610.636 230.109 610.802 231.091 C 610.968 232.072 610.200 234.647 609.095 236.814 C 607.990 238.980 607.384 241.051 607.749 241.416 C 608.114 241.781 607.420 242.339 606.206 242.656 C 604.993 242.974 604.000 243.657 604.000 244.176 C 604.000 244.694 603.610 244.877 603.134 244.583 C 602.657 244.288 601.420 245.049 600.384 246.274 L 598.500 248.500 600.750 246.595 C 604.864 243.112 603.168 246.999 598.794 251.078 C 594.674 254.920 592.143 256.231 593.633 253.750 C 594.064 253.032 593.598 253.139 592.538 254.000 C 591.523 254.825 591.212 255.556 591.846 255.625 C 593.288 255.781 591.407 256.517 588.628 256.885 C 588.148 256.948 588.272 257.623 588.904 258.385 C 589.822 259.491 589.535 259.900 587.481 260.415 C 586.066 260.771 584.409 260.753 583.800 260.376 C 583.147 259.973 582.972 260.145 583.373 260.795 C 584.195 262.125 580.608 264.229 578.211 263.823 C 577.270 263.663 576.294 263.975 576.043 264.516 C 575.123 266.498 569.202 267.613 558.974 267.730 C 551.568 267.816 549.379 267.596 551.500 266.980 C 553.633 266.362 552.708 266.265 548.301 266.647 C 543.585 267.056 541.558 266.804 539.828 265.592 C 538.578 264.717 537.993 263.954 538.527 263.899 C 539.062 263.843 537.774 263.641 535.664 263.450 C 531.944 263.113 528.412 261.254 529.475 260.192 C 529.762 259.905 528.852 259.547 527.453 259.398 C 525.188 259.156 522.109 257.007 515.440 251.008 C 512.166 248.064 507.673 241.102 507.496 238.700 C 507.407 237.490 506.971 236.725 506.526 237.000 C 505.635 237.551 505.085 236.631 502.352 230.020 C 500.877 226.451 500.530 223.196 500.647 214.020 C 500.744 206.360 500.540 203.840 500.038 206.500 L 499.284 210.500 499.157 206.000 C 499.003 200.535 501.352 192.396 502.974 192.775 C 503.761 192.959 503.919 192.297 503.451 190.775 C 503.055 189.487 503.131 188.858 503.626 189.326 C 504.113 189.788 504.500 188.907 504.500 187.334 C 504.500 185.692 505.043 184.512 505.800 184.508 C 506.791 184.502 506.822 184.222 505.933 183.333 C 504.673 182.073 505.384 180.847 509.750 176.750 C 510.988 175.589 512.000 174.291 512.000 173.865 C 512.000 173.039 516.774 168.000 517.557 168.000 C 517.813 168.000 515.983 170.505 513.490 173.566 C 510.996 176.627 508.853 179.588 508.728 180.147 C 508.453 181.370 516.847 170.808 519.085 167.116 C 519.956 165.677 521.531 164.479 522.585 164.453 C 523.638 164.428 524.389 163.870 524.254 163.215 C 523.864 161.330 531.375 156.926 535.422 156.668 C 537.444 156.538 538.739 156.044 538.299 155.568 C 537.859 155.092 538.510 154.953 539.751 155.259 C 540.990 155.564 541.759 155.419 541.460 154.936 C 541.162 154.453 542.174 153.781 543.709 153.442 C 545.244 153.103 546.950 152.647 547.500 152.430 C 548.050 152.213 553.450 152.206 559.500 152.414 C 567.660 152.695 571.855 153.335 575.750 154.892 M 297.278 428.156 C 301.005 429.226 303.795 430.523 303.476 431.039 C 303.157 431.555 303.594 431.709 304.448 431.382 C 305.302 431.054 306.000 431.207 306.000 431.722 C 306.000 432.237 307.005 432.623 308.233 432.579 C 309.461 432.536 310.474 433.100 310.483 433.833 C 310.492 434.567 310.808 434.859 311.183 434.483 C 311.559 434.107 312.459 434.175 313.183 434.635 C 314.194 435.276 314.210 435.502 313.250 435.610 C 311.837 435.768 312.750 436.163 314.997 436.365 C 315.821 436.439 316.496 437.040 316.497 437.700 C 316.499 438.360 317.153 439.485 317.952 440.200 C 319.205 441.322 319.222 441.261 318.079 439.750 C 317.351 438.788 317.148 438.010 317.628 438.022 C 320.183 438.087 330.237 449.171 330.588 452.311 C 330.879 454.910 331.196 455.479 331.390 453.750 C 331.498 452.790 331.724 452.806 332.365 453.817 C 332.825 454.541 332.893 455.441 332.517 455.817 C 332.141 456.192 332.433 456.502 333.167 456.504 C 333.900 456.506 334.512 457.545 334.526 458.811 C 334.540 460.086 334.947 460.754 335.435 460.307 C 335.935 459.850 336.037 460.282 335.671 461.302 C 335.314 462.293 335.402 462.870 335.865 462.583 C 336.329 462.297 337.214 463.174 337.832 464.531 C 338.520 466.041 338.577 467.000 337.979 467.000 C 337.440 467.000 337.007 467.788 337.015 468.750 C 337.028 470.165 337.202 470.230 337.924 469.089 C 340.313 465.314 342.271 490.216 340.000 495.500 C 339.396 496.905 339.094 497.054 338.984 496.000 C 338.898 495.175 338.697 496.525 338.538 499.000 C 338.235 503.720 334.164 513.500 332.502 513.500 C 331.969 513.500 331.650 514.190 331.793 515.033 C 332.103 516.867 328.252 521.274 327.009 520.506 C 326.530 520.210 325.813 520.494 325.415 521.138 C 324.963 521.869 325.124 522.041 325.845 521.595 C 326.480 521.203 327.000 521.319 327.000 521.852 C 327.000 523.268 320.980 528.106 319.984 527.490 C 319.519 527.203 318.813 527.494 318.415 528.138 C 317.963 528.869 318.124 529.041 318.845 528.595 C 319.480 528.203 320.000 528.343 320.000 528.906 C 320.000 529.469 319.130 530.395 318.066 530.965 C 315.711 532.225 314.702 532.292 315.414 531.139 C 315.706 530.666 312.695 532.004 308.723 534.113 C 300.178 538.649 300.417 539.333 309.029 534.986 C 312.313 533.328 315.000 532.379 315.000 532.877 C 315.000 533.375 313.906 534.058 312.570 534.393 C 311.233 534.729 309.546 535.565 308.820 536.252 C 306.595 538.356 300.305 540.110 297.325 539.457 C 295.425 539.041 294.936 539.146 295.831 539.778 C 296.815 540.473 296.293 540.930 293.831 541.534 C 289.097 542.695 285.735 542.946 284.000 542.270 C 283.175 541.948 280.025 541.758 277.000 541.848 C 270.776 542.032 258.350 538.242 258.738 536.277 C 258.875 535.581 258.344 535.314 257.480 535.646 C 256.658 535.962 254.751 535.395 253.242 534.386 C 251.734 533.377 251.063 532.484 251.750 532.401 C 253.646 532.172 251.757 531.744 249.750 531.948 C 248.788 532.046 248.000 531.621 248.000 531.004 C 248.000 530.372 248.547 530.210 249.250 530.633 C 250.220 531.215 250.239 531.060 249.335 529.942 C 248.694 529.149 248.132 528.725 248.085 529.000 C 247.865 530.291 245.498 529.310 245.484 527.922 C 245.474 527.033 244.868 526.544 244.094 526.802 C 243.339 527.054 243.004 526.802 243.350 526.243 C 243.695 525.684 243.195 524.613 242.239 523.863 C 240.686 522.646 240.639 522.677 241.799 524.161 C 242.672 525.279 242.754 526.034 242.049 526.470 C 241.472 526.826 241.000 526.451 241.000 525.636 C 241.000 524.820 239.778 522.656 238.285 520.827 C 236.390 518.504 236.180 517.953 237.590 519.000 C 238.701 519.825 238.235 519.234 236.555 517.687 C 234.875 516.140 234.152 515.015 234.950 515.187 C 235.747 515.359 235.411 514.922 234.203 514.217 C 231.777 512.799 227.357 505.000 228.980 505.000 C 229.541 505.000 230.068 505.450 230.150 506.000 C 230.250 506.667 230.300 506.667 230.300 506.000 C 230.300 503.603 229.932 502.924 228.960 503.525 C 228.283 503.943 228.137 503.177 228.541 501.334 C 228.926 499.578 228.826 498.972 228.278 499.740 C 225.069 504.243 223.311 476.882 226.367 470.000 C 227.222 468.075 227.998 467.175 228.091 468.000 C 228.184 468.825 228.327 467.431 228.408 464.901 C 228.499 462.044 229.207 459.650 230.277 458.580 C 231.225 457.632 232.000 456.393 232.000 455.825 C 232.000 454.545 241.821 442.652 243.340 442.092 C 243.950 441.868 242.503 443.893 240.127 446.592 C 237.750 449.291 235.374 452.400 234.847 453.500 C 234.321 454.600 234.919 454.150 236.178 452.500 C 237.437 450.850 240.499 447.255 242.983 444.512 C 245.467 441.769 246.713 440.136 245.750 440.885 C 244.788 441.633 244.000 441.788 244.000 441.229 C 244.000 440.026 246.837 438.781 247.977 439.486 C 248.415 439.756 249.387 439.195 250.137 438.239 C 251.395 436.634 251.353 436.615 249.587 438.000 C 248.061 439.197 247.767 439.221 248.132 438.117 C 248.383 437.357 251.944 434.921 256.044 432.705 C 261.494 429.760 264.845 428.617 268.500 428.454 C 271.250 428.332 273.275 428.099 273.000 427.935 C 272.725 427.771 276.325 427.607 281.000 427.569 C 286.782 427.522 287.741 427.382 284.000 427.132 C 279.257 426.814 278.913 426.664 281.500 426.040 C 285.126 425.165 288.376 425.601 297.278 428.156 M 439.500 154.481 C 446.196 156.446 448.289 157.724 447.334 159.268 C 446.961 159.872 447.175 160.010 447.845 159.595 C 448.480 159.203 449.000 159.385 449.000 160.000 C 449.000 160.615 449.453 160.838 450.007 160.496 C 450.561 160.154 452.391 160.914 454.074 162.187 C 455.757 163.459 456.445 164.275 455.603 164.000 C 454.472 163.631 454.356 163.807 455.158 164.672 C 455.755 165.316 456.881 165.599 457.659 165.301 C 459.164 164.723 463.000 167.617 463.000 169.329 C 463.000 169.890 461.763 169.259 460.250 167.928 C 457.543 165.545 457.545 165.557 460.403 168.718 C 462.000 170.484 463.647 171.718 464.065 171.460 C 464.865 170.966 472.012 180.149 471.983 181.634 C 471.974 182.110 470.961 180.960 469.733 179.079 C 468.505 177.197 467.631 176.406 467.792 177.322 C 467.953 178.237 469.632 180.488 471.523 182.325 C 473.898 184.631 475.554 187.650 476.876 192.082 C 479.380 200.475 480.314 207.000 479.012 207.000 C 478.455 207.000 478.053 208.688 478.118 210.750 L 478.237 214.500 479.053 211.500 C 479.655 209.283 479.825 210.327 479.704 215.500 C 479.546 222.225 477.898 226.590 476.592 223.741 C 476.279 223.058 476.291 224.019 476.619 225.875 C 477.031 228.210 476.873 229.039 476.107 228.566 C 475.498 228.190 475.000 228.097 475.000 228.359 C 475.000 228.622 474.733 229.661 474.406 230.668 C 473.911 232.192 473.993 232.248 474.890 231.000 C 476.597 228.628 476.265 231.586 474.426 235.143 C 473.561 236.816 472.552 237.885 472.184 237.517 C 471.816 237.149 471.512 237.669 471.508 238.672 C 471.503 239.674 470.900 240.496 470.167 240.497 C 469.433 240.499 469.157 240.823 469.552 241.219 C 470.787 242.454 462.828 253.000 460.660 253.000 C 460.105 253.000 460.738 251.763 462.066 250.250 C 463.394 248.738 462.828 249.075 460.808 251.000 C 458.788 252.925 457.779 254.133 458.567 253.685 C 459.391 253.216 460.000 253.286 460.000 253.851 C 460.000 255.135 445.229 264.005 443.123 263.985 C 441.710 263.971 441.694 263.844 443.000 263.000 C 443.825 262.467 444.050 262.031 443.500 262.031 C 442.163 262.031 439.222 263.961 440.500 264.000 C 441.050 264.017 440.825 264.473 440.000 265.014 C 439.175 265.554 437.150 265.745 435.500 265.438 C 433.357 265.038 432.909 265.159 433.931 265.860 C 436.286 267.475 428.871 268.343 418.109 267.711 C 409.097 267.182 401.229 265.438 402.431 264.235 C 402.725 263.942 401.571 263.592 399.867 263.458 C 395.666 263.128 391.808 260.943 392.454 259.260 C 392.742 258.510 392.542 258.165 392.009 258.494 C 390.750 259.273 386.787 257.154 387.461 256.063 C 387.745 255.603 387.195 254.613 386.239 253.863 C 384.665 252.630 384.630 252.666 385.872 254.250 C 387.541 256.378 385.756 256.616 384.000 254.500 C 383.315 253.675 383.035 253.000 383.378 253.000 C 383.720 253.000 383.728 253.048 383.396 253.106 C 383.064 253.164 380.792 251.252 378.348 248.856 C 375.489 246.054 374.066 243.876 374.358 242.751 C 374.608 241.789 374.335 240.707 373.752 240.346 C 373.083 239.933 372.990 240.175 373.500 241.000 C 374.051 241.892 373.920 242.068 373.086 241.553 C 372.414 241.138 372.114 240.145 372.420 239.347 C 372.750 238.487 372.547 238.162 371.922 238.548 C 370.163 239.635 368.160 235.752 368.535 231.982 C 368.729 230.032 368.433 227.776 367.878 226.968 C 367.123 225.870 367.021 226.130 367.471 228.000 C 368.042 230.372 367.991 230.355 366.462 227.669 C 365.351 225.716 365.028 223.546 365.422 220.669 C 365.787 218.004 365.691 217.212 365.156 218.472 C 364.411 220.226 364.255 220.115 363.748 217.472 C 363.434 215.837 363.605 213.983 364.127 213.351 C 364.668 212.697 364.792 209.422 364.414 205.735 C 363.996 201.661 364.156 198.570 364.845 197.384 C 365.675 195.955 365.963 195.862 366.040 197.000 C 366.167 198.899 367.859 195.179 367.859 193.000 C 367.859 192.055 367.542 192.239 367.000 193.500 C 365.628 196.692 365.852 193.001 367.273 189.000 C 368.914 184.381 369.951 182.852 371.002 183.501 C 371.477 183.795 372.684 182.391 373.683 180.382 L 375.500 176.729 373.144 180.114 C 371.848 181.976 371.111 182.600 371.507 181.500 C 371.903 180.400 372.453 178.713 372.730 177.750 C 373.007 176.788 373.631 175.944 374.117 175.875 C 374.602 175.806 375.428 175.694 375.950 175.625 C 376.473 175.556 377.485 174.847 378.200 174.048 C 379.322 172.795 379.261 172.778 377.750 173.921 C 374.946 176.042 375.733 173.630 378.805 170.687 C 382.207 167.428 384.043 167.122 381.430 170.250 C 380.397 171.488 381.409 170.700 383.681 168.500 C 385.953 166.300 386.783 165.175 385.525 166.000 C 382.368 168.072 383.793 166.049 387.827 162.734 C 391.632 159.607 394.451 158.946 390.861 162.023 C 388.801 163.788 389.011 163.756 392.500 161.775 C 394.700 160.525 395.825 159.496 395.000 159.486 C 393.875 159.474 393.813 159.271 394.750 158.676 C 395.438 158.239 396.520 158.203 397.155 158.595 C 397.870 159.038 398.038 158.870 397.594 158.153 C 396.763 156.808 399.974 155.344 408.000 153.409 C 415.276 151.655 431.780 152.217 439.500 154.481 M 555.950 427.832 L 561.500 427.664 556.000 426.947 C 551.785 426.397 552.602 426.311 559.500 426.575 C 568.987 426.940 580.667 429.879 580.262 431.800 C 580.131 432.421 580.688 432.673 581.500 432.362 C 583.163 431.723 592.000 436.540 592.000 438.085 C 592.000 438.635 594.138 441.270 596.750 443.940 L 601.500 448.795 598.000 444.367 L 594.500 439.939 599.239 444.720 C 603.754 449.274 605.438 451.982 602.750 450.367 C 602.032 449.936 602.139 450.402 603.000 451.462 C 604.093 452.806 604.513 452.926 604.547 451.904 C 604.573 451.132 605.991 452.656 607.699 455.290 C 614.936 466.459 617.296 487.915 612.782 501.500 C 609.553 511.216 605.228 518.696 601.512 520.993 C 599.783 522.061 597.501 523.962 596.441 525.218 C 594.672 527.313 594.759 527.297 597.507 525.014 C 599.596 523.278 599.292 523.831 596.500 526.846 C 592.876 530.759 588.281 534.000 586.359 534.000 C 585.951 534.000 586.491 533.300 587.559 532.445 C 589.429 530.946 589.419 530.929 587.287 531.960 C 585.814 532.673 585.284 533.576 585.701 534.663 C 586.208 535.983 585.823 536.199 583.694 535.792 C 582.246 535.515 581.258 535.608 581.499 535.998 C 582.234 537.188 576.911 539.101 574.635 538.465 C 573.090 538.034 572.882 538.133 573.882 538.825 C 574.981 539.585 574.805 539.927 573.028 540.491 C 568.616 541.891 559.487 542.713 556.824 541.949 C 555.141 541.467 553.977 541.569 553.761 542.218 C 553.543 542.870 552.485 542.960 550.956 542.456 L 548.500 541.647 551.000 540.848 C 552.598 540.337 551.747 540.248 548.643 540.601 C 545.347 540.977 543.997 540.813 544.443 540.092 C 544.877 539.390 544.108 539.228 542.172 539.616 C 538.821 540.286 534.601 538.455 535.636 536.780 C 536.088 536.049 535.747 535.883 534.655 536.302 C 532.572 537.101 527.673 535.338 528.456 534.071 C 528.773 533.558 528.506 532.813 527.862 532.415 C 527.131 531.963 526.959 532.124 527.405 532.845 C 528.518 534.648 526.407 534.200 524.872 532.308 C 523.704 530.867 523.708 530.742 524.905 531.463 C 525.812 532.010 526.077 531.934 525.654 531.248 C 525.293 530.665 524.023 530.443 522.830 530.755 C 521.173 531.188 520.801 530.962 521.249 529.792 C 521.626 528.812 520.162 526.615 517.168 523.666 C 514.601 521.137 512.163 519.052 511.750 519.034 C 511.338 519.015 510.550 519.000 510.000 519.000 C 509.450 519.000 509.000 518.270 509.000 517.378 C 509.000 515.995 509.258 515.951 510.750 517.079 C 512.261 518.222 512.322 518.205 511.200 516.952 C 510.485 516.153 509.370 515.500 508.722 515.500 C 506.780 515.500 501.989 504.859 502.509 501.700 C 502.763 500.160 502.575 499.145 502.092 499.443 C 500.757 500.268 499.957 495.773 500.472 490.348 C 500.834 486.532 500.752 486.138 500.084 488.500 L 499.237 491.500 499.118 488.809 C 499.053 487.329 499.508 485.804 500.128 485.421 C 500.878 484.957 501.049 482.742 500.638 478.809 C 500.216 474.776 500.355 473.101 501.074 473.545 C 501.770 473.976 501.941 473.060 501.577 470.848 C 500.963 467.114 504.769 456.590 506.812 456.375 C 507.465 456.306 508.113 456.140 508.250 456.007 C 508.388 455.873 508.163 455.816 507.750 455.882 C 507.338 455.947 507.016 455.663 507.035 455.250 C 507.188 452.020 519.451 438.576 521.521 439.369 C 522.299 439.668 523.245 439.413 523.622 438.802 C 524.038 438.129 523.854 437.972 523.155 438.405 C 522.520 438.797 522.000 438.690 522.000 438.166 C 522.000 437.642 522.712 436.941 523.582 436.607 C 525.847 435.738 526.212 435.847 525.405 437.155 C 524.959 437.876 525.131 438.037 525.862 437.585 C 526.506 437.187 526.801 436.487 526.518 436.029 C 525.175 433.856 547.384 425.238 549.450 427.130 C 549.973 427.608 552.898 427.924 555.950 427.832 M 429.500 287.936 C 437.999 288.913 447.543 292.312 446.505 293.992 C 445.933 294.918 447.300 295.448 449.336 295.090 C 449.795 295.009 451.820 295.966 453.836 297.216 C 455.851 298.466 456.901 299.491 456.169 299.494 C 455.438 299.497 456.109 300.625 457.662 302.000 C 460.051 304.115 460.193 304.153 458.588 302.250 C 457.002 300.370 456.944 300.000 458.238 300.000 C 459.629 300.000 461.184 302.122 461.414 304.333 C 461.461 304.792 461.801 304.866 462.169 304.498 C 462.537 304.130 463.309 304.708 463.884 305.783 C 464.459 306.858 464.718 307.949 464.459 308.208 C 464.200 308.467 465.003 309.539 466.244 310.589 L 468.500 312.500 466.595 310.250 C 465.547 309.013 465.033 308.000 465.451 308.000 C 465.870 308.000 467.177 309.209 468.356 310.686 C 470.918 313.895 472.477 317.413 470.907 316.443 C 470.321 316.080 470.803 317.520 471.979 319.642 C 473.155 321.764 473.856 322.649 473.536 321.609 C 473.035 319.981 473.174 319.900 474.535 321.029 C 475.404 321.750 476.041 323.501 475.952 324.920 C 475.862 326.339 475.836 327.287 475.894 327.027 C 475.952 326.768 476.611 327.443 477.359 328.527 C 478.106 329.612 478.959 333.601 479.255 337.391 C 479.578 341.535 479.441 343.728 478.911 342.891 C 478.209 341.781 478.028 341.854 478.015 343.250 C 478.007 344.213 478.563 345.007 479.250 345.015 C 480.211 345.027 480.199 345.221 479.200 345.855 C 478.283 346.437 478.083 348.025 478.520 351.248 C 478.962 354.507 478.516 357.920 476.965 363.158 C 474.676 370.891 473.343 373.330 471.898 372.437 C 471.417 372.140 471.314 372.707 471.671 373.698 C 472.047 374.745 471.941 375.154 471.417 374.674 C 470.909 374.209 470.512 374.645 470.508 375.672 C 470.503 376.674 469.938 377.552 469.250 377.622 C 468.563 377.693 467.888 377.860 467.750 377.993 C 467.613 378.127 467.838 378.184 468.250 378.118 C 469.375 377.941 469.100 379.285 467.608 381.250 C 466.093 383.246 464.506 383.643 465.613 381.750 C 466.015 381.063 465.348 381.400 464.131 382.500 C 462.915 383.600 462.387 384.388 462.960 384.250 C 464.364 383.912 464.276 385.324 462.800 386.800 C 461.221 388.379 459.681 388.344 460.613 386.750 C 461.015 386.063 460.348 386.400 459.131 387.500 C 457.915 388.600 457.387 389.388 457.960 389.250 C 458.532 389.113 459.000 389.450 459.000 390.000 C 459.000 390.956 458.355 391.182 455.000 391.404 C 454.175 391.458 453.444 392.065 453.375 392.751 C 453.306 393.438 453.194 394.482 453.125 395.072 C 453.056 395.661 451.896 395.998 450.546 395.822 C 449.196 395.645 448.061 395.950 448.024 396.500 C 447.986 397.050 446.727 397.502 445.227 397.505 C 443.613 397.508 443.112 397.756 444.000 398.112 C 445.042 398.530 444.279 399.270 441.500 400.536 C 435.482 403.277 403.822 403.627 408.119 400.905 C 410.129 399.632 408.236 399.803 405.783 401.116 C 404.096 402.019 403.800 401.963 404.237 400.824 C 404.640 399.775 403.781 399.376 400.870 399.260 C 398.720 399.175 396.334 398.476 395.566 397.709 C 394.798 396.941 392.782 395.738 391.085 395.035 C 389.388 394.332 388.000 393.358 388.000 392.870 C 388.000 392.382 390.495 393.391 393.546 395.113 C 396.596 396.834 399.371 397.963 399.712 397.621 C 400.054 397.280 399.894 397.000 399.358 397.000 C 398.821 397.000 395.811 395.452 392.669 393.560 C 389.527 391.667 387.217 390.542 387.537 391.060 C 387.856 391.577 387.551 392.000 386.858 392.000 C 384.877 392.000 373.863 380.149 374.056 378.226 C 374.261 376.197 373.830 374.419 373.577 376.250 C 373.483 376.938 372.403 375.925 371.178 374.000 C 369.952 372.075 369.144 369.712 369.382 368.749 C 369.646 367.678 369.395 367.256 368.737 367.663 C 368.049 368.088 367.898 367.708 368.319 366.612 C 368.683 365.663 368.566 365.150 368.058 365.464 C 366.739 366.279 366.008 364.708 364.929 358.747 C 363.231 349.360 362.864 345.279 363.916 347.500 C 364.568 348.875 364.705 347.313 364.355 342.500 C 364.075 338.650 364.302 334.375 364.860 333.000 C 365.470 331.494 365.952 331.097 366.072 332.000 C 366.182 332.825 366.350 331.665 366.446 329.422 C 366.542 327.178 367.654 323.353 368.917 320.922 C 370.179 318.490 371.727 315.491 372.356 314.258 C 372.985 313.025 373.829 312.012 374.231 312.008 C 374.633 312.004 373.396 314.850 371.481 318.333 C 369.566 321.816 368.010 325.079 368.023 325.583 C 368.054 326.865 375.053 313.905 375.523 311.695 C 376.655 306.367 390.682 294.173 394.148 295.503 C 394.923 295.801 396.444 295.334 397.529 294.467 C 399.449 292.930 399.444 292.917 397.316 293.945 C 394.287 295.408 393.536 295.264 395.000 293.500 C 395.685 292.675 397.063 292.000 398.063 292.000 C 399.064 292.000 400.127 291.604 400.426 291.119 C 401.170 289.916 406.000 289.066 406.000 290.139 C 406.000 290.612 406.477 291.000 407.059 291.000 C 407.641 291.000 407.854 290.573 407.531 290.051 C 407.208 289.528 408.644 288.816 410.722 288.469 C 412.800 288.121 414.950 287.684 415.500 287.497 C 417.327 286.877 421.416 287.005 429.500 287.936 M 566.000 287.949 C 572.280 288.766 577.883 290.464 581.000 292.493 C 582.333 293.361 582.333 293.476 581.000 293.530 C 580.175 293.563 581.460 294.616 583.855 295.869 C 586.250 297.122 587.874 297.606 587.465 296.944 C 586.991 296.177 587.225 295.908 588.111 296.204 C 588.875 296.458 589.520 297.079 589.545 297.583 C 589.570 298.088 592.720 301.706 596.545 305.624 C 600.370 309.543 604.000 313.368 604.611 314.124 C 605.223 314.881 604.396 313.586 602.773 311.247 C 601.151 308.909 600.439 307.231 601.191 307.520 C 603.224 308.300 609.228 318.822 608.403 320.157 C 607.962 320.871 608.131 321.037 608.847 320.594 C 610.382 319.646 612.251 324.614 611.401 327.382 C 611.044 328.547 611.115 329.155 611.559 328.733 C 613.260 327.119 614.752 334.050 614.929 344.391 C 615.153 357.460 612.537 367.777 607.046 375.467 C 605.096 378.199 603.500 379.818 603.500 379.064 C 603.500 378.113 603.040 378.259 602.000 379.538 C 601.139 380.598 601.032 381.064 601.750 380.633 C 603.740 379.437 603.197 381.511 601.000 383.500 C 599.900 384.495 599.000 384.945 599.000 384.500 C 599.000 384.055 598.097 384.507 596.994 385.506 C 595.890 386.504 595.220 387.553 595.503 387.836 C 596.159 388.492 591.969 393.000 590.703 393.000 C 590.182 393.000 590.373 392.246 591.128 391.325 C 592.223 389.989 591.915 390.040 589.605 391.575 C 588.013 392.634 587.443 393.369 588.339 393.210 C 589.448 393.012 589.779 393.411 589.377 394.460 C 589.052 395.307 588.024 396.000 587.093 396.000 C 586.162 396.000 584.972 396.389 584.450 396.865 C 583.928 397.341 580.184 398.976 576.132 400.498 C 569.720 402.906 567.881 403.183 561.966 402.633 C 558.227 402.286 554.343 401.716 553.334 401.366 C 551.703 400.801 551.721 400.919 553.500 402.434 C 555.470 404.110 555.462 404.129 553.000 403.640 C 551.625 403.367 548.274 402.822 545.554 402.429 C 539.616 401.571 531.725 398.254 532.528 396.954 C 532.851 396.432 532.350 396.312 531.388 396.681 C 530.231 397.125 529.905 396.962 530.388 396.181 C 530.857 395.423 530.565 395.230 529.542 395.622 C 527.361 396.459 514.000 386.213 514.000 383.703 C 514.000 383.206 516.521 385.103 519.602 387.919 C 522.682 390.735 526.170 393.505 527.352 394.074 C 528.536 394.646 528.154 394.089 526.500 392.833 C 524.850 391.581 520.810 388.068 517.521 385.028 C 514.233 381.988 512.195 380.400 512.991 381.500 C 514.073 382.994 513.752 382.887 511.720 381.076 C 508.748 378.427 507.919 375.908 510.750 378.128 C 512.334 379.370 512.370 379.335 511.137 377.761 C 510.387 376.805 509.413 376.245 508.972 376.517 C 507.678 377.317 503.740 370.103 504.301 367.959 C 504.583 366.880 504.458 366.217 504.023 366.486 C 502.350 367.520 500.507 360.259 500.598 353.000 C 500.666 347.593 500.493 346.477 499.978 349.000 L 499.263 352.500 499.132 348.809 C 499.059 346.779 499.503 344.807 500.118 344.427 C 500.831 343.986 501.012 342.105 500.618 339.226 C 499.930 334.213 501.541 326.598 503.087 327.554 C 503.700 327.933 503.841 327.215 503.455 325.677 C 502.724 322.764 504.601 318.635 506.205 319.627 C 506.846 320.023 507.028 319.854 506.638 319.223 C 505.652 317.629 509.158 310.846 510.668 311.426 C 511.769 311.848 513.338 310.520 513.534 309.000 C 513.803 306.911 515.313 304.000 516.126 304.000 C 516.672 304.000 516.800 304.563 516.412 305.250 C 515.848 306.250 515.976 306.250 517.053 305.250 C 517.794 304.563 518.007 304.000 517.526 304.000 C 517.045 304.000 517.708 302.875 519.000 301.500 C 521.921 298.390 524.010 298.173 521.405 301.250 L 519.500 303.500 521.710 301.631 C 522.926 300.603 523.826 299.305 523.710 298.748 C 523.281 296.677 535.452 290.626 543.500 288.910 C 552.699 286.948 556.924 286.767 566.000 287.949 M 435.210 427.954 C 436.675 428.542 436.960 428.945 436.000 429.072 C 435.175 429.182 436.341 429.350 438.591 429.446 C 442.765 429.625 449.391 432.205 450.568 434.109 C 450.926 434.690 449.843 434.453 448.160 433.583 C 446.477 432.712 444.739 432.019 444.300 432.042 C 443.860 432.065 445.075 432.922 447.000 433.947 C 448.924 434.971 450.857 435.589 451.294 435.319 C 451.730 435.049 453.306 435.642 454.794 436.638 C 456.282 437.633 456.938 438.516 456.250 438.599 C 454.669 438.790 454.998 439.058 457.358 439.504 C 459.417 439.893 464.000 443.846 464.000 445.233 C 464.000 445.720 463.458 445.783 462.795 445.373 C 462.132 444.964 463.320 446.699 465.435 449.229 C 467.550 451.759 469.780 453.649 470.390 453.428 C 472.008 452.844 476.235 462.685 475.441 465.187 C 475.038 466.456 475.172 467.012 475.788 466.631 C 477.626 465.495 478.263 469.385 478.518 483.297 C 478.728 494.737 478.457 497.897 476.932 501.797 C 475.921 504.384 475.073 505.863 475.047 505.083 C 475.021 504.304 474.711 503.956 474.357 504.309 C 474.004 504.663 474.245 505.591 474.894 506.372 C 475.830 507.501 475.433 508.740 472.958 512.407 C 471.245 514.945 469.460 516.784 468.991 516.494 C 468.522 516.205 467.813 516.494 467.415 517.138 C 466.963 517.869 467.124 518.041 467.845 517.595 C 470.423 516.003 468.763 519.659 465.297 523.208 C 460.205 528.422 458.650 528.016 463.544 522.750 C 466.477 519.594 466.163 519.787 462.323 523.500 C 459.480 526.250 457.796 528.132 458.581 527.682 C 459.680 527.052 459.909 527.397 459.578 529.182 C 459.342 530.457 459.115 531.152 459.074 530.727 C 459.033 530.302 457.911 530.667 456.580 531.539 C 455.250 532.411 453.337 532.984 452.330 532.812 C 451.013 532.588 450.591 533.027 450.824 534.381 C 451.087 535.909 450.671 536.170 448.604 535.775 C 447.117 535.491 446.308 535.689 446.655 536.252 C 447.013 536.831 446.304 536.946 444.875 536.542 C 443.101 536.039 442.872 536.125 443.972 536.881 C 445.239 537.752 445.204 537.984 443.720 538.554 C 442.771 538.918 440.759 538.928 439.248 538.577 C 437.370 538.141 436.947 538.237 437.911 538.878 C 440.061 540.309 433.050 542.062 423.036 542.597 C 413.735 543.095 409.441 542.234 414.500 540.887 C 416.661 540.311 416.102 540.227 412.500 540.585 C 408.819 540.951 407.896 540.804 409.000 540.027 C 410.106 539.249 409.416 539.135 406.376 539.594 C 403.791 539.983 401.996 539.802 401.567 539.108 C 401.190 538.498 401.246 537.933 401.691 537.852 C 402.440 537.715 401.462 537.518 398.191 537.148 C 397.471 537.067 397.157 536.555 397.493 536.011 C 397.836 535.456 397.458 535.271 396.630 535.588 C 394.824 536.281 390.735 534.238 391.488 533.019 C 391.788 532.535 391.506 531.813 390.862 531.415 C 390.131 530.963 389.959 531.124 390.405 531.845 C 391.698 533.938 389.338 533.050 385.500 530.000 C 383.424 528.350 381.310 527.000 380.803 527.000 C 380.297 527.000 380.167 526.539 380.515 525.975 C 380.894 525.362 382.829 526.205 385.324 528.070 C 389.061 530.863 388.978 530.716 384.526 526.675 C 381.791 524.191 379.254 522.343 378.889 522.568 C 377.889 523.186 375.742 520.226 376.409 519.148 C 376.728 518.631 376.065 517.149 374.935 515.854 L 372.881 513.500 374.651 516.500 L 376.422 519.500 374.149 517.539 C 372.807 516.381 372.069 514.846 372.345 513.788 C 372.603 512.803 372.425 512.238 371.949 512.531 C 370.571 513.383 367.831 507.136 368.514 504.700 C 368.947 503.156 368.851 502.904 368.191 503.857 C 367.673 504.603 367.019 504.828 366.736 504.357 C 365.305 501.971 363.888 491.233 364.482 487.274 C 364.982 483.938 364.851 482.974 363.970 483.518 C 363.165 484.016 362.957 483.651 363.321 482.375 C 364.029 479.895 365.485 467.894 365.301 466.053 C 365.222 465.257 365.742 464.132 366.458 463.553 C 367.174 462.974 368.058 461.222 368.422 459.659 C 368.862 457.772 369.556 456.999 370.491 457.358 C 371.465 457.732 371.708 457.402 371.279 456.285 C 370.885 455.257 371.060 454.919 371.761 455.352 C 372.366 455.726 373.187 455.506 373.585 454.862 C 374.037 454.131 373.876 453.959 373.155 454.405 C 372.458 454.835 372.000 454.457 372.000 453.452 C 372.000 452.398 372.539 451.993 373.468 452.349 C 374.275 452.659 375.245 452.413 375.622 451.802 C 376.038 451.129 375.854 450.972 375.155 451.405 C 373.609 452.359 373.679 450.721 375.250 449.150 C 376.089 448.311 376.500 448.266 376.500 449.016 C 376.500 449.629 377.850 448.641 379.500 446.819 C 382.263 443.768 382.283 443.698 379.750 445.928 C 376.135 449.110 376.183 447.157 379.805 443.687 C 382.741 440.874 384.636 440.114 383.387 442.250 C 382.985 442.938 383.616 442.659 384.788 441.631 C 385.961 440.603 386.885 439.478 386.842 439.131 C 386.590 437.114 387.180 436.000 388.500 436.000 C 389.325 436.000 389.888 436.540 389.750 437.200 C 389.613 437.859 390.097 437.374 390.827 436.122 C 391.589 434.813 392.753 434.075 393.565 434.386 C 394.341 434.684 394.869 434.438 394.738 433.839 C 394.607 433.240 395.125 432.523 395.889 432.245 C 396.733 431.939 397.007 432.179 396.587 432.859 C 396.148 433.570 396.459 433.761 397.442 433.384 C 398.293 433.057 398.772 432.440 398.507 432.011 C 397.916 431.055 402.106 429.266 409.178 427.453 C 414.894 425.988 431.089 426.300 435.210 427.954 M 302.000 155.097 C 309.049 157.513 316.141 161.517 315.747 162.857 C 315.611 163.318 318.650 166.557 322.500 170.056 C 326.350 173.554 329.500 176.811 329.500 177.292 C 329.500 177.773 329.801 177.866 330.169 177.498 C 330.537 177.130 331.361 177.806 332.000 179.000 C 332.639 180.194 332.901 181.433 332.581 181.752 C 332.261 182.072 331.933 181.808 331.850 181.167 C 331.760 180.463 331.660 180.497 331.600 181.250 C 331.545 181.938 332.168 182.500 332.985 182.500 C 334.870 182.500 338.972 190.250 339.566 194.934 C 342.011 214.218 340.854 224.217 334.794 236.166 C 331.274 243.108 328.000 247.562 328.000 245.410 C 328.000 244.951 325.733 246.808 322.962 249.538 C 320.191 252.267 318.427 254.500 319.042 254.500 C 321.328 254.500 315.147 259.123 312.377 259.486 C 309.149 259.908 308.445 260.190 310.154 260.375 C 311.820 260.556 309.203 262.397 305.000 264.000 C 303.075 264.734 301.039 265.681 300.475 266.104 C 299.911 266.526 296.536 266.726 292.975 266.547 C 288.801 266.338 287.389 266.503 289.000 267.012 C 290.684 267.543 288.889 267.810 283.500 267.830 C 277.745 267.851 276.061 267.594 277.500 266.913 C 278.950 266.227 278.291 266.119 275.107 266.518 C 270.106 267.146 256.103 263.041 253.825 260.279 C 252.630 258.830 252.745 258.798 255.000 259.959 C 256.945 260.959 257.237 260.966 256.317 259.989 C 255.261 258.869 254.260 258.609 249.143 258.128 C 248.397 258.057 248.027 257.373 248.321 256.606 C 248.615 255.840 247.654 254.153 246.185 252.856 C 243.643 250.613 243.606 250.608 245.412 252.750 C 248.378 256.266 245.768 255.388 242.146 251.651 C 240.360 249.808 239.035 247.691 239.200 246.946 C 239.365 246.201 238.825 245.569 238.000 245.543 C 237.175 245.516 236.476 244.821 236.447 243.997 C 236.418 243.174 235.518 241.019 234.447 239.210 L 232.500 235.920 234.000 239.559 L 235.500 243.199 232.470 238.850 C 228.832 233.627 226.743 227.102 227.487 223.288 C 227.888 221.232 227.810 221.006 227.190 222.427 C 226.409 224.218 226.302 224.230 225.675 222.595 C 224.353 219.151 224.935 199.380 226.461 195.865 C 227.264 194.014 227.968 193.175 228.024 194.000 C 228.082 194.838 228.550 194.442 229.085 193.105 C 229.612 191.787 229.808 190.475 229.521 190.188 C 229.235 189.901 228.933 190.192 228.850 190.833 C 228.768 191.475 228.700 191.550 228.700 191.000 C 228.700 188.621 229.064 187.921 230.000 188.500 C 230.550 188.840 231.000 188.641 231.000 188.059 C 231.000 187.477 230.534 187.000 229.965 187.000 C 229.261 187.000 229.271 186.363 229.995 185.010 C 230.580 183.915 231.523 183.128 232.089 183.260 C 232.656 183.392 233.880 182.056 234.810 180.290 L 236.500 177.080 234.267 180.290 C 233.039 182.056 232.026 182.894 232.017 182.154 C 231.995 180.382 236.050 174.717 236.803 175.469 C 237.751 176.417 248.879 164.847 248.348 163.465 C 247.815 162.075 249.507 160.712 252.311 160.276 C 253.402 160.106 253.856 160.424 253.453 161.076 C 253.085 161.672 254.520 161.243 256.642 160.124 C 258.764 159.004 260.133 158.069 259.684 158.044 C 259.236 158.020 257.886 158.503 256.684 159.117 C 254.743 160.109 254.667 160.067 256.000 158.735 C 256.825 157.911 260.175 156.257 263.445 155.060 C 268.110 153.351 270.800 152.990 275.945 153.381 C 280.992 153.764 281.695 153.675 279.000 152.991 C 276.501 152.357 278.361 152.213 285.500 152.486 C 292.398 152.750 297.516 153.560 302.000 155.097 M 443.000 590.052 C 441.922 590.787 442.581 590.887 445.344 590.408 C 450.833 589.457 460.861 592.797 459.437 595.102 C 459.140 595.583 459.668 595.681 460.612 595.319 C 461.727 594.891 462.090 595.046 461.648 595.761 C 461.274 596.366 461.494 597.187 462.138 597.585 C 462.892 598.051 463.040 597.874 462.554 597.088 C 461.456 595.310 465.200 596.131 466.718 598.000 C 468.539 600.243 468.246 601.434 466.250 599.903 C 465.288 599.165 465.625 599.776 467.000 601.262 C 468.375 602.748 469.275 603.258 469.000 602.397 C 468.725 601.535 470.006 602.925 471.846 605.485 C 473.687 608.046 474.887 610.446 474.513 610.820 C 474.139 611.194 474.388 611.500 475.066 611.500 C 476.973 611.500 479.147 619.002 478.544 623.500 C 478.137 626.530 478.243 627.015 478.981 625.500 C 479.663 624.098 479.828 626.042 479.533 632.000 C 479.224 638.247 479.349 639.572 480.003 637.000 C 480.697 634.270 480.782 634.890 480.389 639.818 C 479.929 645.594 478.213 652.428 478.063 649.083 C 478.029 648.304 477.711 647.956 477.357 648.309 C 477.004 648.663 477.177 649.525 477.742 650.226 C 478.408 651.051 478.440 652.372 477.833 653.976 C 477.063 656.013 476.724 656.190 475.918 654.976 C 475.203 653.898 475.101 654.199 475.538 656.092 C 475.990 658.046 475.444 659.472 473.319 661.889 C 471.768 663.653 470.725 664.366 471.000 663.473 C 471.386 662.220 471.279 662.152 470.526 663.176 C 469.991 663.904 469.541 665.174 469.526 665.997 C 469.512 666.821 468.900 667.496 468.167 667.497 C 467.433 667.499 467.117 667.783 467.463 668.129 C 468.752 669.419 460.092 675.108 456.488 675.338 C 454.515 675.464 453.194 675.860 453.551 676.218 C 454.443 677.110 447.290 678.928 443.000 678.899 C 441.075 678.887 433.875 678.754 427.000 678.604 L 414.500 678.332 425.500 678.966 L 436.500 679.601 426.358 679.801 C 413.999 680.044 414.830 678.333 415.069 703.029 C 415.164 712.803 414.935 721.295 414.562 721.900 C 413.707 723.283 383.168 723.392 381.000 722.021 C 379.694 721.195 379.481 712.675 379.351 656.286 C 379.252 613.430 379.547 591.077 380.223 590.250 C 381.002 589.297 388.767 589.004 412.872 589.015 C 434.724 589.026 444.036 589.346 443.000 590.052 M 590.000 589.613 C 594.844 591.285 598.500 593.111 598.500 593.857 C 598.500 594.577 598.825 594.842 599.222 594.445 C 600.829 592.838 602.000 599.781 602.000 610.916 C 602.000 622.317 600.833 629.000 598.843 629.000 C 598.315 629.000 598.203 628.480 598.595 627.845 C 599.047 627.115 598.869 626.963 598.111 627.432 C 596.704 628.301 591.691 625.309 592.462 624.061 C 592.752 623.593 592.293 622.943 591.442 622.616 C 590.557 622.276 590.157 622.445 590.507 623.011 C 591.358 624.388 590.605 624.256 586.534 622.315 C 584.590 621.388 583.000 620.263 583.000 619.815 C 583.000 619.367 579.063 619.076 574.250 619.168 C 565.648 619.333 565.602 619.347 571.500 620.000 L 577.500 620.664 571.000 621.027 C 563.194 621.463 559.322 621.778 560.000 621.923 C 560.707 622.075 557.671 623.966 556.691 623.985 C 556.246 623.993 556.188 623.505 556.562 622.900 C 556.964 622.248 556.276 622.336 554.871 623.114 C 552.712 624.310 552.679 624.431 554.500 624.464 L 556.500 624.500 554.500 625.720 C 553.400 626.390 552.950 626.986 553.500 627.044 C 554.050 627.101 553.427 627.347 552.116 627.589 C 549.979 627.983 549.870 627.846 551.068 626.264 C 551.804 625.294 550.550 626.244 548.282 628.375 C 545.563 630.931 544.356 632.804 544.739 633.875 C 545.064 634.786 544.931 635.145 544.435 634.693 C 543.947 634.246 543.540 634.914 543.526 636.189 C 543.511 637.545 542.883 638.503 542.000 638.520 C 541.101 638.537 540.594 639.340 540.734 640.524 C 540.863 641.611 540.551 644.525 540.041 647.000 C 538.880 652.629 538.049 667.539 538.980 666.032 C 539.359 665.419 540.437 667.298 541.374 670.208 C 542.312 673.119 544.411 677.161 546.040 679.191 C 549.752 683.821 549.850 685.093 546.250 681.938 C 544.738 680.612 545.300 681.402 547.500 683.692 C 549.700 685.983 551.093 687.154 550.596 686.294 C 550.057 685.362 550.057 684.902 550.596 685.155 C 551.093 685.388 554.425 687.043 558.000 688.833 C 564.329 692.002 564.793 692.080 575.654 691.794 C 581.789 691.632 586.614 691.185 586.376 690.800 C 585.862 689.967 589.310 687.985 591.184 688.035 C 591.908 688.055 591.375 688.714 590.000 689.500 C 587.137 691.137 588.120 691.541 591.094 689.950 C 592.173 689.372 592.796 688.479 592.479 687.965 C 592.161 687.451 593.386 686.126 595.201 685.019 C 599.000 682.703 601.327 682.294 598.441 684.450 C 596.546 685.866 596.550 685.888 598.603 685.372 C 600.460 684.905 600.783 685.397 601.353 689.561 C 602.564 698.391 602.095 712.998 600.492 716.375 C 599.239 719.016 597.849 719.922 592.242 721.752 C 588.534 722.962 583.700 724.410 581.500 724.970 C 574.739 726.692 560.551 726.187 550.624 723.873 C 540.957 721.619 531.548 717.541 532.491 716.015 C 532.802 715.512 532.031 714.603 530.778 713.995 C 528.596 712.936 528.582 712.955 530.441 714.445 C 532.034 715.721 532.097 716.000 530.790 716.000 C 529.914 716.000 528.239 714.538 527.067 712.750 C 525.895 710.963 525.239 710.115 525.610 710.866 C 526.051 711.762 525.304 711.590 523.436 710.366 C 521.869 709.340 521.156 708.500 521.850 708.500 C 522.543 708.500 521.594 707.030 519.740 705.232 C 517.886 703.435 516.122 702.212 515.820 702.514 C 515.518 702.815 514.465 701.811 513.481 700.281 L 511.690 697.500 514.015 699.500 L 516.339 701.500 513.920 698.166 C 512.589 696.333 511.500 695.389 511.500 696.070 C 511.500 700.438 503.855 684.869 503.604 679.990 C 503.490 677.761 503.127 676.207 502.798 676.536 C 501.159 678.174 500.216 668.758 500.442 653.000 C 500.637 639.335 500.980 635.500 502.007 635.500 C 502.741 635.500 503.440 634.175 503.590 632.500 C 503.980 628.157 505.836 623.781 506.987 624.492 C 507.531 624.828 507.756 624.518 507.487 623.802 C 507.217 623.086 507.988 620.925 509.200 619.000 C 510.413 617.075 511.483 616.063 511.577 616.750 C 511.832 618.596 512.260 616.794 512.052 614.750 C 511.954 613.788 512.379 613.000 512.996 613.000 C 513.628 613.000 513.790 613.547 513.367 614.250 C 512.952 614.942 513.405 614.830 514.382 614.000 C 515.354 613.175 515.665 612.613 515.074 612.750 C 514.483 612.888 514.015 612.663 514.033 612.250 C 514.081 611.171 517.682 607.000 518.565 607.000 C 518.975 607.000 518.466 608.013 517.433 609.250 C 516.401 610.488 517.678 609.475 520.272 607.000 C 522.865 604.525 524.539 602.613 523.993 602.750 C 522.419 603.146 522.837 601.844 524.750 600.392 C 527.257 598.489 528.483 598.696 526.872 600.750 C 525.639 602.323 525.671 602.366 527.191 601.177 C 528.120 600.449 528.635 599.212 528.334 598.427 C 527.994 597.543 528.420 597.000 529.452 597.000 C 530.457 597.000 530.835 597.458 530.405 598.155 C 529.959 598.876 530.131 599.037 530.862 598.585 C 531.506 598.187 531.788 597.465 531.488 596.981 C 531.189 596.497 531.827 595.628 532.906 595.050 C 535.425 593.702 536.293 593.717 535.443 595.093 C 535.071 595.694 536.057 595.453 537.634 594.556 C 539.834 593.306 539.977 593.067 538.250 593.531 C 536.945 593.881 536.000 593.687 536.000 593.067 C 536.000 592.480 536.788 592.000 537.750 591.999 C 538.713 591.999 541.975 591.052 545.000 589.894 C 553.101 586.794 558.257 586.086 570.500 586.398 C 579.598 586.629 582.970 587.185 590.000 589.613 "/></g>
<g fill="#0875B9FD" stroke="#0875B9FD">
<path d="M 415.667 620.667 C 414.566 621.767 414.892 646.815 416.016 647.510 C 416.575 647.856 416.809 648.500 416.536 648.942 C 416.262 649.384 420.418 649.771 425.769 649.801 C 432.192 649.838 434.650 649.575 433.000 649.028 C 431.198 648.431 431.007 648.172 432.317 648.100 C 433.316 648.045 435.678 646.822 437.567 645.381 C 439.455 643.941 441.052 642.929 441.115 643.131 C 441.252 643.567 441.633 642.037 441.848 640.191 C 441.931 639.471 442.450 639.160 443.000 639.500 C 443.550 639.840 444.000 639.390 444.000 638.500 C 444.000 637.572 443.528 637.174 442.893 637.566 C 442.178 638.008 441.974 637.586 442.318 636.375 C 443.328 632.820 444.007 627.472 443.217 629.301 C 442.567 630.803 442.229 630.523 441.174 627.604 C 439.146 621.996 434.848 620.000 424.799 620.000 C 420.143 620.000 416.033 620.300 415.667 620.667 "/></g>
</svg>
