<?xml version="1.0" encoding="UTF-8" standalone="no"?> <svg xmlns="http://www.w3.org/2000/svg" viewBox="0 0 48 48"><defs><style>.cls-1{fill:#00b157;}.cls-2{fill:#00cf66;}</style></defs><title>Vegetables</title><g id="Vegetables"><path class="cls-1" d="M20.92,46a3.017,3.017,0,0,1-2.987-2.791,27.254,27.254,0,0,0-4.206-12.535,1,1,0,0,1,.243-1.361l3.19-2.331a1,1,0,0,1,.59-.192.932.932,0,0,1,.2.02,1,1,0,0,1,.659.461,50.579,50.579,0,0,1,2.533,4.884,42.667,42.667,0,0,1,.583-5.706,1,1,0,0,1,.87-.793l4.39-.48a1,1,0,0,1,1.07,1.269,30.529,30.529,0,0,0-.87,5.074,49.411,49.411,0,0,1,2.3-4.389,1,1,0,0,1,1.3-.374l3.58,1.8a1,1,0,0,1,.36,1.481,26.446,26.446,0,0,0-4.665,13.174A3.008,3.008,0,0,1,27.079,46Z"/><path class="cls-2" d="M12.125,31.55A8.134,8.134,0,0,1,4,23.425a8.04,8.04,0,0,1,2.077-5.419A8.435,8.435,0,0,1,5.9,16.3a8.59,8.59,0,0,1,9.181-8.579A7.166,7.166,0,0,1,28.528,6a7.646,7.646,0,0,1,11.357,8.673A8.594,8.594,0,0,1,35.4,30.6a8.543,8.543,0,0,1-7.161-3.848,9.626,9.626,0,0,1-8.665-.095A8.1,8.1,0,0,1,12.125,31.55Z"/><path class="cls-1" d="M32.7,20a1,1,0,0,1,0-2,5.528,5.528,0,0,0,5.039-3.269,1,1,0,0,1,1.825.816A7.53,7.53,0,0,1,32.7,20Z"/><path class="cls-1" d="M11.536,24.17a1,1,0,0,1-.389-.079,8.628,8.628,0,0,1-4.929-5.5,1,1,0,0,1,1.917-.571,6.721,6.721,0,0,0,3.791,4.228,1,1,0,0,1-.39,1.922Z"/><path class="cls-1" d="M22.147,16.294a1,1,0,0,1,0-2,5.114,5.114,0,0,0,3.64-1.507A1,1,0,1,1,27.2,14.2,7.1,7.1,0,0,1,22.147,16.294Z"/></g></svg>