<svg fill="none" height="24" viewBox="0 0 70 24" width="70" xmlns="http://www.w3.org/2000/svg" xmlns:xlink="http://www.w3.org/1999/xlink"><clipPath id="a"><path d="m0 .5h22v23h-22z"/></clipPath><g fill="#bc8d4b"><g clip-path="url(#a)"><path d="m11.1953 20.4685h-2.99413c-3.25443 0-5.98816-2.3725-6.50887-5.5358l-1.041421-5.79946c0-.39542 0-.65903.260355-.92264.260356-.26361.520706-.39541.911246-.39541h15.75152c.3905 0 .6508.1318.9112.39541s.2604.65903.2604.92264l-1.0415 5.79946c-.5207 3.2951-3.2544 5.5358-6.5088 5.5358zm-9.11247-11.20346.91124 5.53586c.39054 2.6361 2.60355 4.4813 5.2071 4.4813h2.99413c2.6035 0 4.8165-1.8452 5.2071-4.4813l.9112-5.53586z"/><path d="m17.4438 10.0559c.6509-.65904 2.0828-1.18627 3.2544 0 .7811.7908.9113 2.3725.1302 3.5587-.5207.9227-1.432 1.4499-2.4734 1.4499-.3905 0-.781-.1318-1.3017-.2636l.3905-1.3181c1.3018.3954 1.9526-.1318 2.213-.659.3905-.659.3905-1.5817 0-1.9771-.6509-.659-1.1716-.1318-1.4319 0z"/><path d="m6.8994 7.02435c-.26035 0-.39053-.13181-.52071-.26362 0-.1318-.39053-.65902-.39053-1.44985s.39053-1.44986.39053-1.44986.26036-.39541.26036-.79083-.26036-.79083-.26036-.79083c-.13018-.26361-.13018-.65903.26036-.92264.26035-.1318.65088-.1318.91124.26361 0 .13181.39053.65903.39053 1.44986s-.39053 1.44986-.39053 1.44986-.26036.39541-.26036.79083c0 .39541.26036.79083.26036.79083.13018.26361.13018.65903-.26036.92264-.26035 0-.26035 0-.39053 0z"/><path d="m9.76329 7.02435c-.26035 0-.39053-.13181-.52071-.26362 0 0-.39053-.65902-.39053-1.44985s.39053-1.44986.39053-1.44986.26036-.39541.26036-.79083-.26036-.79083-.26036-.79083c-.13017-.26361-.13017-.65903.26036-.92264.26035-.1318.65086-.1318.91126.26361 0 .13181.3905.65903.3905 1.44986s-.3905 1.44986-.3905 1.44986-.2604.39541-.2604.79083c0 .39541.2604.79083.2604.79083.1302.26361.1302.65903-.2604.92264-.1302 0-.26033 0-.39051 0z"/><path d="m12.6272 7.02434c-.2603 0-.3905-.1318-.5207-.26361 0 0-.3905-.65902-.3905-1.44986 0-.79083.3905-1.44985.3905-1.44985s.2604-.39542.2604-.79083c0-.39542-.2604-.79083-.2604-.79083-.1302-.26361-.1302-.65903.2604-.92264.3905-.26361.6508-.13181.9112.26361 0 .13181.3905.65903.3905 1.44986s-.3905 1.44985-.3905 1.44985-.2604.39542-.2604.79083c0 .39542.2604.79084.2604.79084.1302.26361.1302.65902-.2604.92263-.1301 0-.2603 0-.3905 0z"/><path d="m18.2248 23.1046h-16.92303c-.390536 0-.650891-.2636-.650891-.659 0-.3955.260355-.6591.650891-.6591h16.92303c.3906 0 .6509.2636.6509.6591 0 .3954-.2603.659-.6509.659z"/></g><path d="m32.9 19.16c-1.84 0-3.2867-.5267-4.34-1.58s-1.58-2.5933-1.58-4.62v-7.96h2v7.88c0 1.56.34 2.7 1.02 3.42.6933.72 1.6667 1.08 2.92 1.08 1.2667 0 2.24-.36 2.92-1.08.6933-.72 1.04-1.86 1.04-3.42v-7.88h1.94v7.96c0 2.0267-.5267 3.5667-1.58 4.62-1.04 1.0533-2.4867 1.58-4.34 1.58zm10.0203-.16v-14h5.46c1.2267 0 2.2733.19333 3.14.58s1.5333.94667 2 1.68.7 1.60667.7 2.62c0 1.0133-.2333 1.8867-.7 2.62-.4667.72-1.1333 1.28-2 1.68-.8667.3867-1.9133.58-3.14.58h-4.36l.9-.94v5.18zm2-4.98-.9-1h4.3c1.28 0 2.2467-.2733 2.9-.82.6667-.5467 1-1.32 1-2.32s-.3333-1.77333-1-2.32c-.6533-.54667-1.62-.82-2.9-.82h-4.3l.9-1zm18.6936 5.14c-1.0667 0-2.0533-.1733-2.96-.52-.8933-.36-1.6733-.86-2.34-1.5-.6533-.6533-1.1667-1.4133-1.54-2.28s-.56-1.82-.56-2.86.1867-1.9933.56-2.86c.3733-.86667.8933-1.62 1.56-2.26.6667-.65333 1.4467-1.15333 2.34-1.5.9067-.36 1.8933-.54 2.96-.54 1.08 0 2.0733.18667 2.98.56.92.36 1.7.9 2.34 1.62l-1.3 1.26c-.5333-.56-1.1333-.97333-1.8-1.24-.6667-.28-1.38-.42-2.14-.42-.7867 0-1.52.13333-2.2.4-.6667.26667-1.2467.64-1.74 1.12s-.88 1.05333-1.16 1.72c-.2667.6533-.4 1.3667-.4 2.14s.1333 1.4933.4 2.16c.28.6533.6667 1.22 1.16 1.7s1.0733.8533 1.74 1.12c.68.2667 1.4133.4 2.2.4.76 0 1.4733-.1333 2.14-.4.6667-.28 1.2667-.7067 1.8-1.28l1.3 1.26c-.64.72-1.42 1.2667-2.34 1.64-.9067.3733-1.9067.56-3 .56z"/></g></svg>